solid OpenSCAD_Model
  facet normal -1 -0 -0
    outer loop
      vertex -31 -42.5 0.50005
      vertex -31 -42.5 1.00005
      vertex -31 42.5 0.50005
    endloop
  endfacet
  facet normal -1 0 0
    outer loop
      vertex -31 42.5 0.50005
      vertex -31 -42.5 1.00005
      vertex -31 42.5 1.00005
    endloop
  endfacet
  facet normal -0.995185 -0.0980175 -0
    outer loop
      vertex -31 -42.5 0.50005
      vertex -30.9039 -43.4755 0.50005
      vertex -31 -42.5 1.00005
    endloop
  endfacet
  facet normal -0.995185 -0.0980175 0
    outer loop
      vertex -31 -42.5 1.00005
      vertex -30.9039 -43.4755 0.50005
      vertex -30.9039 -43.4755 1.00005
    endloop
  endfacet
  facet normal -0.829287 -0.081678 -0.552821
    outer loop
      vertex -30.9039 -43.4755 0.50005
      vertex -31 -42.5 0.50005
      vertex -29.9231 -43.2804 -1.00005
    endloop
  endfacet
  facet normal -0.829287 -0.0816778 -0.552821
    outer loop
      vertex -29.9231 -43.2804 -1.00005
      vertex -31 -42.5 0.50005
      vertex -30 -42.5 -1.00005
    endloop
  endfacet
  facet normal -0.832067 -0 -0.554675
    outer loop
      vertex -31 -42.5 0.50005
      vertex -31 42.5 0.50005
      vertex -30 -42.5 -1.00005
    endloop
  endfacet
  facet normal -0.832067 -0 -0.554675
    outer loop
      vertex -30 -42.5 -1.00005
      vertex -31 42.5 0.50005
      vertex -30 42.5 -1.00005
    endloop
  endfacet
  facet normal -0.995185 0.0980175 0
    outer loop
      vertex -31 42.5 0.50005
      vertex -31 42.5 1.00005
      vertex -30.9039 43.4755 0.50005
    endloop
  endfacet
  facet normal -0.995185 0.0980175 0
    outer loop
      vertex -30.9039 43.4755 0.50005
      vertex -31 42.5 1.00005
      vertex -30.9039 43.4755 1.00005
    endloop
  endfacet
  facet normal -0.829287 0.081678 -0.552821
    outer loop
      vertex -30 42.5 -1.00005
      vertex -31 42.5 0.50005
      vertex -30.9039 43.4755 0.50005
    endloop
  endfacet
  facet normal 0 -0 1
    outer loop
      vertex -31 42.5 1.00005
      vertex -31 -42.5 1.00005
      vertex -30.9039 -43.4755 1.00005
    endloop
  endfacet
  facet normal 0 0 1
    outer loop
      vertex -30.1573 -45.2779 1.00005
      vertex -31 42.5 1.00005
      vertex -30.6194 -44.4134 1.00005
    endloop
  endfacet
  facet normal 0 0 1
    outer loop
      vertex -30.6194 -44.4134 1.00005
      vertex -31 42.5 1.00005
      vertex -30.9039 -43.4755 1.00005
    endloop
  endfacet
  facet normal 0 0 1
    outer loop
      vertex -29.5355 -46.0355 1.00005
      vertex -31 42.5 1.00005
      vertex -30.1573 -45.2779 1.00005
    endloop
  endfacet
  facet normal 0 0 1
    outer loop
      vertex -28.7779 -46.6573 1.00005
      vertex -31 42.5 1.00005
      vertex -29.5355 -46.0355 1.00005
    endloop
  endfacet
  facet normal 0 0 1
    outer loop
      vertex -27.9134 -47.1194 1.00005
      vertex -31 42.5 1.00005
      vertex -28.7779 -46.6573 1.00005
    endloop
  endfacet
  facet normal -0 0 1
    outer loop
      vertex -27.5 -40 1.00005
      vertex -31 42.5 1.00005
      vertex -27.9134 -47.1194 1.00005
    endloop
  endfacet
  facet normal 0 0 1
    outer loop
      vertex 18.75 -35.25 1.00005
      vertex 27.5 -35.25 1.00005
      vertex -18.75 35.25 1.00005
    endloop
  endfacet
  facet normal 0 -0 1
    outer loop
      vertex 24.2804 -43.9231 1.00005
      vertex 23.5 -44 1.00005
      vertex 26 -47.5 1.00005
    endloop
  endfacet
  facet normal 0 0 1
    outer loop
      vertex -26.8259 42.2223 1.00005
      vertex -26.3284 42.8284 1.00005
      vertex -31 42.5 1.00005
    endloop
  endfacet
  facet normal 0 0 1
    outer loop
      vertex -18.75 44 1.00005
      vertex 18.75 44 1.00005
      vertex 30.6194 44.4134 1.00005
    endloop
  endfacet
  facet normal 0 0 1
    outer loop
      vertex 24.2804 43.9231 1.00005
      vertex 25.0307 43.6955 1.00005
      vertex 30.9039 43.4755 1.00005
    endloop
  endfacet
  facet normal 0 0 1
    outer loop
      vertex -18.75 44 1.00005
      vertex 29.5355 46.0355 1.00005
      vertex 28.7779 46.6573 1.00005
    endloop
  endfacet
  facet normal 0 0 1
    outer loop
      vertex -18.75 44 1.00005
      vertex 26.9755 47.4039 1.00005
      vertex 26 47.5 1.00005
    endloop
  endfacet
  facet normal -0 0 1
    outer loop
      vertex -26.3284 42.8284 1.00005
      vertex -25.7223 43.3259 1.00005
      vertex -31 42.5 1.00005
    endloop
  endfacet
  facet normal 0 0 1
    outer loop
      vertex -23.5 44 1.00005
      vertex -18.75 44 1.00005
      vertex 26 47.5 1.00005
    endloop
  endfacet
  facet normal 0 -0 1
    outer loop
      vertex -26.9755 47.4039 1.00005
      vertex -31 42.5 1.00005
      vertex -26 47.5 1.00005
    endloop
  endfacet
  facet normal 0 -0 1
    outer loop
      vertex -27.9134 47.1194 1.00005
      vertex -31 42.5 1.00005
      vertex -26.9755 47.4039 1.00005
    endloop
  endfacet
  facet normal 0 -0 1
    outer loop
      vertex -28.7779 46.6573 1.00005
      vertex -31 42.5 1.00005
      vertex -27.9134 47.1194 1.00005
    endloop
  endfacet
  facet normal 0 -0 1
    outer loop
      vertex -29.5355 46.0355 1.00005
      vertex -31 42.5 1.00005
      vertex -28.7779 46.6573 1.00005
    endloop
  endfacet
  facet normal 0 -0 1
    outer loop
      vertex -30.1573 45.2779 1.00005
      vertex -31 42.5 1.00005
      vertex -29.5355 46.0355 1.00005
    endloop
  endfacet
  facet normal 0 -0 1
    outer loop
      vertex -30.6194 44.4134 1.00005
      vertex -31 42.5 1.00005
      vertex -30.1573 45.2779 1.00005
    endloop
  endfacet
  facet normal 0 -0 1
    outer loop
      vertex -30.9039 43.4755 1.00005
      vertex -31 42.5 1.00005
      vertex -30.6194 44.4134 1.00005
    endloop
  endfacet
  facet normal 0 0 1
    outer loop
      vertex -26.9755 -47.4039 1.00005
      vertex -27.5 -40 1.00005
      vertex -27.9134 -47.1194 1.00005
    endloop
  endfacet
  facet normal -0 0 1
    outer loop
      vertex -25.7223 -43.3259 1.00005
      vertex -26.3284 -42.8284 1.00005
      vertex -26 -47.5 1.00005
    endloop
  endfacet
  facet normal 0 0 1
    outer loop
      vertex 26.3284 42.8284 1.00005
      vertex 26.8259 42.2223 1.00005
      vertex 31 42.5 1.00005
    endloop
  endfacet
  facet normal -0 -0 1
    outer loop
      vertex -26.3284 -42.8284 1.00005
      vertex -26.8259 -42.2223 1.00005
      vertex -26 -47.5 1.00005
    endloop
  endfacet
  facet normal -0 -0 1
    outer loop
      vertex -27.5 35.25 1.00005
      vertex -31 42.5 1.00005
      vertex -18.75 -35.25 1.00005
    endloop
  endfacet
  facet normal -0 0 1
    outer loop
      vertex 26 -47.5 1.00005
      vertex -18.75 -44 1.00005
      vertex -26 -47.5 1.00005
    endloop
  endfacet
  facet normal 0 0 1
    outer loop
      vertex 26 -47.5 1.00005
      vertex -18.75 -35.25 1.00005
      vertex -18.75 -44 1.00005
    endloop
  endfacet
  facet normal 0 0 1
    outer loop
      vertex -18.75 -44 1.00005
      vertex -23.5 -44 1.00005
      vertex -26 -47.5 1.00005
    endloop
  endfacet
  facet normal -0 0 1
    outer loop
      vertex -24.2804 -43.9231 1.00005
      vertex -25.0307 -43.6955 1.00005
      vertex -26 -47.5 1.00005
    endloop
  endfacet
  facet normal -0 0 1
    outer loop
      vertex -23.5 -44 1.00005
      vertex -24.2804 -43.9231 1.00005
      vertex -26 -47.5 1.00005
    endloop
  endfacet
  facet normal -0 0 1
    outer loop
      vertex -25.0307 -43.6955 1.00005
      vertex -25.7223 -43.3259 1.00005
      vertex -26 -47.5 1.00005
    endloop
  endfacet
  facet normal 0 -0 1
    outer loop
      vertex 25.0307 -43.6955 1.00005
      vertex 24.2804 -43.9231 1.00005
      vertex 26.9755 -47.4039 1.00005
    endloop
  endfacet
  facet normal -0 -0 1
    outer loop
      vertex -27.1955 -41.5307 1.00005
      vertex -27.4231 -40.7804 1.00005
      vertex -26.9755 -47.4039 1.00005
    endloop
  endfacet
  facet normal 0 -0 1
    outer loop
      vertex 27.5 -40 1.00005
      vertex 27.4231 -40.7804 1.00005
      vertex 30.6194 -44.4134 1.00005
    endloop
  endfacet
  facet normal 0 0 1
    outer loop
      vertex -26 -47.5 1.00005
      vertex -26.8259 -42.2223 1.00005
      vertex -26.9755 -47.4039 1.00005
    endloop
  endfacet
  facet normal -0 0 1
    outer loop
      vertex -26.8259 -42.2223 1.00005
      vertex -27.1955 -41.5307 1.00005
      vertex -26.9755 -47.4039 1.00005
    endloop
  endfacet
  facet normal 0 0 1
    outer loop
      vertex -26.9755 -47.4039 1.00005
      vertex -27.4231 -40.7804 1.00005
      vertex -27.5 -40 1.00005
    endloop
  endfacet
  facet normal 0 0 1
    outer loop
      vertex 18.75 -44 1.00005
      vertex -27.5 35.25 1.00005
      vertex -18.75 -35.25 1.00005
    endloop
  endfacet
  facet normal -0 0 1
    outer loop
      vertex -27.4231 40.7804 1.00005
      vertex -31 42.5 1.00005
      vertex -27.5 40 1.00005
    endloop
  endfacet
  facet normal 0 0 1
    outer loop
      vertex 18.75 -44 1.00005
      vertex 18.75 -35.25 1.00005
      vertex -27.5 35.25 1.00005
    endloop
  endfacet
  facet normal -0 0 1
    outer loop
      vertex -27.1955 41.5307 1.00005
      vertex -31 42.5 1.00005
      vertex -27.4231 40.7804 1.00005
    endloop
  endfacet
  facet normal -0 0 1
    outer loop
      vertex -26.8259 42.2223 1.00005
      vertex -31 42.5 1.00005
      vertex -27.1955 41.5307 1.00005
    endloop
  endfacet
  facet normal 0 -0 1
    outer loop
      vertex 27.1955 -41.5307 1.00005
      vertex 26.8259 -42.2223 1.00005
      vertex 29.5355 -46.0355 1.00005
    endloop
  endfacet
  facet normal 0 0 1
    outer loop
      vertex -18.75 44 1.00005
      vertex 30.1573 45.2779 1.00005
      vertex 29.5355 46.0355 1.00005
    endloop
  endfacet
  facet normal 0 -0 1
    outer loop
      vertex -26 47.5 1.00005
      vertex -31 42.5 1.00005
      vertex -25.7223 43.3259 1.00005
    endloop
  endfacet
  facet normal 0 0 1
    outer loop
      vertex -26 47.5 1.00005
      vertex -25.7223 43.3259 1.00005
      vertex -25.0307 43.6955 1.00005
    endloop
  endfacet
  facet normal 0 0 1
    outer loop
      vertex -26 47.5 1.00005
      vertex -25.0307 43.6955 1.00005
      vertex -24.2804 43.9231 1.00005
    endloop
  endfacet
  facet normal 0 0 1
    outer loop
      vertex -26 47.5 1.00005
      vertex -23.5 44 1.00005
      vertex 26 47.5 1.00005
    endloop
  endfacet
  facet normal 0 0 1
    outer loop
      vertex -26 47.5 1.00005
      vertex -24.2804 43.9231 1.00005
      vertex -23.5 44 1.00005
    endloop
  endfacet
  facet normal 0 0 1
    outer loop
      vertex 25.0307 43.6955 1.00005
      vertex 25.7223 43.3259 1.00005
      vertex 30.9039 43.4755 1.00005
    endloop
  endfacet
  facet normal 0 0 1
    outer loop
      vertex 26 -47.5 1.00005
      vertex 18.75 -44 1.00005
      vertex -18.75 -35.25 1.00005
    endloop
  endfacet
  facet normal 0 0 1
    outer loop
      vertex 31 42.5 1.00005
      vertex 27.5 -35.25 1.00005
      vertex 31 -42.5 1.00005
    endloop
  endfacet
  facet normal 0 -0 1
    outer loop
      vertex 18.75 35.25 1.00005
      vertex -18.75 35.25 1.00005
      vertex 27.5 -35.25 1.00005
    endloop
  endfacet
  facet normal -0 0 1
    outer loop
      vertex 30.9039 -43.4755 1.00005
      vertex 27.5 -40 1.00005
      vertex 30.6194 -44.4134 1.00005
    endloop
  endfacet
  facet normal -0 0 1
    outer loop
      vertex 30.6194 -44.4134 1.00005
      vertex 27.4231 -40.7804 1.00005
      vertex 30.1573 -45.2779 1.00005
    endloop
  endfacet
  facet normal -0 0 1
    outer loop
      vertex 30.1573 -45.2779 1.00005
      vertex 27.1955 -41.5307 1.00005
      vertex 29.5355 -46.0355 1.00005
    endloop
  endfacet
  facet normal 0 0 1
    outer loop
      vertex -18.75 44 1.00005
      vertex 30.6194 44.4134 1.00005
      vertex 30.1573 45.2779 1.00005
    endloop
  endfacet
  facet normal -0 0 1
    outer loop
      vertex 29.5355 -46.0355 1.00005
      vertex 26.8259 -42.2223 1.00005
      vertex 28.7779 -46.6573 1.00005
    endloop
  endfacet
  facet normal 0 -0 1
    outer loop
      vertex 26.8259 -42.2223 1.00005
      vertex 26.3284 -42.8284 1.00005
      vertex 28.7779 -46.6573 1.00005
    endloop
  endfacet
  facet normal -0 0 1
    outer loop
      vertex 28.7779 -46.6573 1.00005
      vertex 25.7223 -43.3259 1.00005
      vertex 27.9134 -47.1194 1.00005
    endloop
  endfacet
  facet normal -0 0 1
    outer loop
      vertex 27.9134 -47.1194 1.00005
      vertex 25.0307 -43.6955 1.00005
      vertex 26.9755 -47.4039 1.00005
    endloop
  endfacet
  facet normal -0 0 1
    outer loop
      vertex 26.9755 -47.4039 1.00005
      vertex 24.2804 -43.9231 1.00005
      vertex 26 -47.5 1.00005
    endloop
  endfacet
  facet normal 0 0 1
    outer loop
      vertex 26 -47.5 1.00005
      vertex 23.5 -44 1.00005
      vertex 18.75 -44 1.00005
    endloop
  endfacet
  facet normal 0 -0 1
    outer loop
      vertex 27.5 -35.25 1.00005
      vertex 27.5 -40 1.00005
      vertex 30.9039 -43.4755 1.00005
    endloop
  endfacet
  facet normal 0 0 1
    outer loop
      vertex 27.5 35.25 1.00005
      vertex 18.75 35.25 1.00005
      vertex 27.5 -35.25 1.00005
    endloop
  endfacet
  facet normal 0 0 1
    outer loop
      vertex 27.4231 40.7804 1.00005
      vertex 27.5 40 1.00005
      vertex 31 42.5 1.00005
    endloop
  endfacet
  facet normal 0 -0 1
    outer loop
      vertex 30.6194 44.4134 1.00005
      vertex 23.5 44 1.00005
      vertex 30.9039 43.4755 1.00005
    endloop
  endfacet
  facet normal 0 0 1
    outer loop
      vertex 30.6194 44.4134 1.00005
      vertex 18.75 44 1.00005
      vertex 23.5 44 1.00005
    endloop
  endfacet
  facet normal 0 0 1
    outer loop
      vertex 23.5 44 1.00005
      vertex 24.2804 43.9231 1.00005
      vertex 30.9039 43.4755 1.00005
    endloop
  endfacet
  facet normal 0 -0 1
    outer loop
      vertex 30.9039 43.4755 1.00005
      vertex 25.7223 43.3259 1.00005
      vertex 31 42.5 1.00005
    endloop
  endfacet
  facet normal 0 0 1
    outer loop
      vertex -18.75 44 1.00005
      vertex 27.9134 47.1194 1.00005
      vertex 26.9755 47.4039 1.00005
    endloop
  endfacet
  facet normal 0 0 1
    outer loop
      vertex 25.7223 43.3259 1.00005
      vertex 26.3284 42.8284 1.00005
      vertex 31 42.5 1.00005
    endloop
  endfacet
  facet normal 0 0 1
    outer loop
      vertex -18.75 44 1.00005
      vertex 28.7779 46.6573 1.00005
      vertex 27.9134 47.1194 1.00005
    endloop
  endfacet
  facet normal 0 0 1
    outer loop
      vertex 31 42.5 1.00005
      vertex 27.1955 41.5307 1.00005
      vertex 27.4231 40.7804 1.00005
    endloop
  endfacet
  facet normal 0 0 1
    outer loop
      vertex 31 42.5 1.00005
      vertex 27.5 40 1.00005
      vertex 27.5 35.25 1.00005
    endloop
  endfacet
  facet normal 0 0 1
    outer loop
      vertex 31 42.5 1.00005
      vertex 27.5 35.25 1.00005
      vertex 27.5 -35.25 1.00005
    endloop
  endfacet
  facet normal 0 0 1
    outer loop
      vertex -27.5 35.25 1.00005
      vertex -27.5 40 1.00005
      vertex -31 42.5 1.00005
    endloop
  endfacet
  facet normal 0 0 1
    outer loop
      vertex -27.5 -40 1.00005
      vertex -27.5 -35.25 1.00005
      vertex -31 42.5 1.00005
    endloop
  endfacet
  facet normal 0 0 1
    outer loop
      vertex -27.5 -35.25 1.00005
      vertex -18.75 -35.25 1.00005
      vertex -31 42.5 1.00005
    endloop
  endfacet
  facet normal 0 -0 1
    outer loop
      vertex 27.4231 -40.7804 1.00005
      vertex 27.1955 -41.5307 1.00005
      vertex 30.1573 -45.2779 1.00005
    endloop
  endfacet
  facet normal 0 0 1
    outer loop
      vertex 26.8259 42.2223 1.00005
      vertex 27.1955 41.5307 1.00005
      vertex 31 42.5 1.00005
    endloop
  endfacet
  facet normal 0 -0 1
    outer loop
      vertex 26.3284 -42.8284 1.00005
      vertex 25.7223 -43.3259 1.00005
      vertex 28.7779 -46.6573 1.00005
    endloop
  endfacet
  facet normal -0 0 1
    outer loop
      vertex 18.75 35.25 1.00005
      vertex -18.75 44 1.00005
      vertex -18.75 35.25 1.00005
    endloop
  endfacet
  facet normal 0 -0 1
    outer loop
      vertex 25.7223 -43.3259 1.00005
      vertex 25.0307 -43.6955 1.00005
      vertex 27.9134 -47.1194 1.00005
    endloop
  endfacet
  facet normal 0 0 1
    outer loop
      vertex 18.75 35.25 1.00005
      vertex 18.75 44 1.00005
      vertex -18.75 44 1.00005
    endloop
  endfacet
  facet normal 0 0 1
    outer loop
      vertex 27.5 -35.25 1.00005
      vertex 30.9039 -43.4755 1.00005
      vertex 31 -42.5 1.00005
    endloop
  endfacet
  facet normal 0 -0 1
    outer loop
      vertex -18.75 35.25 1.00005
      vertex -27.5 35.25 1.00005
      vertex 18.75 -35.25 1.00005
    endloop
  endfacet
  facet normal -0.95694 -0.290284 -0
    outer loop
      vertex -30.9039 -43.4755 0.50005
      vertex -30.6194 -44.4134 0.50005
      vertex -30.9039 -43.4755 1.00005
    endloop
  endfacet
  facet normal -0.95694 -0.290284 0
    outer loop
      vertex -30.9039 -43.4755 1.00005
      vertex -30.6194 -44.4134 0.50005
      vertex -30.6194 -44.4134 1.00005
    endloop
  endfacet
  facet normal -0.797418 -0.241894 -0.552821
    outer loop
      vertex -30.6194 -44.4134 0.50005
      vertex -30.9039 -43.4755 0.50005
      vertex -29.6955 -44.0307 -1.00005
    endloop
  endfacet
  facet normal -0.797418 -0.241894 -0.552821
    outer loop
      vertex -29.6955 -44.0307 -1.00005
      vertex -30.9039 -43.4755 0.50005
      vertex -29.9231 -43.2804 -1.00005
    endloop
  endfacet
  facet normal -0 -0 -1
    outer loop
      vertex -30 -42.5 -1.00005
      vertex -30 42.5 -1.00005
      vertex -29.9231 -43.2804 -1.00005
    endloop
  endfacet
  facet normal 0 0 -1
    outer loop
      vertex -29.9231 -43.2804 -1.00005
      vertex -30 42.5 -1.00005
      vertex -29.9231 43.2804 -1.00005
    endloop
  endfacet
  facet normal 0 -0 -1
    outer loop
      vertex -29.9231 -43.2804 -1.00005
      vertex -29.9231 43.2804 -1.00005
      vertex -29.6955 44.0307 -1.00005
    endloop
  endfacet
  facet normal 0 0 -1
    outer loop
      vertex -29.9231 -43.2804 -1.00005
      vertex -29.6955 44.0307 -1.00005
      vertex -29.3259 44.7223 -1.00005
    endloop
  endfacet
  facet normal 0 0 -1
    outer loop
      vertex -29.9231 -43.2804 -1.00005
      vertex -29.3259 44.7223 -1.00005
      vertex -28.8284 45.3284 -1.00005
    endloop
  endfacet
  facet normal 0 0 -1
    outer loop
      vertex -29.9231 -43.2804 -1.00005
      vertex -28.8284 45.3284 -1.00005
      vertex -28.2223 45.8259 -1.00005
    endloop
  endfacet
  facet normal 0 0 -1
    outer loop
      vertex -29.9231 -43.2804 -1.00005
      vertex -28.2223 45.8259 -1.00005
      vertex -27.5307 46.1955 -1.00005
    endloop
  endfacet
  facet normal 0 0 -1
    outer loop
      vertex -29.9231 -43.2804 -1.00005
      vertex -27.5307 46.1955 -1.00005
      vertex -26.7804 46.4231 -1.00005
    endloop
  endfacet
  facet normal 0 0 -1
    outer loop
      vertex -29.9231 -43.2804 -1.00005
      vertex -26.7804 46.4231 -1.00005
      vertex -26 46.5 -1.00005
    endloop
  endfacet
  facet normal 0 0 -1
    outer loop
      vertex -29.9231 -43.2804 -1.00005
      vertex -26 46.5 -1.00005
      vertex 26 46.5 -1.00005
    endloop
  endfacet
  facet normal 0 0 -1
    outer loop
      vertex -29.9231 -43.2804 -1.00005
      vertex 26 46.5 -1.00005
      vertex 26.7804 46.4231 -1.00005
    endloop
  endfacet
  facet normal 0 0 -1
    outer loop
      vertex -29.9231 -43.2804 -1.00005
      vertex 26.7804 46.4231 -1.00005
      vertex 27.5307 46.1955 -1.00005
    endloop
  endfacet
  facet normal 0 0 -1
    outer loop
      vertex -29.9231 -43.2804 -1.00005
      vertex 27.5307 46.1955 -1.00005
      vertex 28.2223 45.8259 -1.00005
    endloop
  endfacet
  facet normal 0 0 -1
    outer loop
      vertex -29.9231 -43.2804 -1.00005
      vertex 28.2223 45.8259 -1.00005
      vertex 28.8284 45.3284 -1.00005
    endloop
  endfacet
  facet normal 0 0 -1
    outer loop
      vertex -29.9231 -43.2804 -1.00005
      vertex 28.8284 45.3284 -1.00005
      vertex 29.3259 44.7223 -1.00005
    endloop
  endfacet
  facet normal 0 0 -1
    outer loop
      vertex -29.9231 -43.2804 -1.00005
      vertex 29.3259 44.7223 -1.00005
      vertex 29.6955 44.0307 -1.00005
    endloop
  endfacet
  facet normal 0 0 -1
    outer loop
      vertex -29.9231 -43.2804 -1.00005
      vertex 29.6955 44.0307 -1.00005
      vertex 29.9231 43.2804 -1.00005
    endloop
  endfacet
  facet normal 0 0 -1
    outer loop
      vertex -29.9231 -43.2804 -1.00005
      vertex 29.9231 43.2804 -1.00005
      vertex 30 42.5 -1.00005
    endloop
  endfacet
  facet normal 0 0 -1
    outer loop
      vertex -29.9231 -43.2804 -1.00005
      vertex 30 42.5 -1.00005
      vertex 30 -42.5 -1.00005
    endloop
  endfacet
  facet normal -0 0 -1
    outer loop
      vertex -29.9231 -43.2804 -1.00005
      vertex 30 -42.5 -1.00005
      vertex 29.9231 -43.2804 -1.00005
    endloop
  endfacet
  facet normal 0 0 -1
    outer loop
      vertex -29.9231 -43.2804 -1.00005
      vertex 29.9231 -43.2804 -1.00005
      vertex 29.6955 -44.0307 -1.00005
    endloop
  endfacet
  facet normal 0 0 -1
    outer loop
      vertex -29.9231 -43.2804 -1.00005
      vertex 29.6955 -44.0307 -1.00005
      vertex 29.3259 -44.7223 -1.00005
    endloop
  endfacet
  facet normal 0 0 -1
    outer loop
      vertex -29.9231 -43.2804 -1.00005
      vertex 29.3259 -44.7223 -1.00005
      vertex 28.8284 -45.3284 -1.00005
    endloop
  endfacet
  facet normal 0 0 -1
    outer loop
      vertex -29.9231 -43.2804 -1.00005
      vertex 28.8284 -45.3284 -1.00005
      vertex 28.2223 -45.8259 -1.00005
    endloop
  endfacet
  facet normal 0 0 -1
    outer loop
      vertex -29.9231 -43.2804 -1.00005
      vertex 28.2223 -45.8259 -1.00005
      vertex 27.5307 -46.1955 -1.00005
    endloop
  endfacet
  facet normal 0 0 -1
    outer loop
      vertex -29.9231 -43.2804 -1.00005
      vertex 27.5307 -46.1955 -1.00005
      vertex 26.7804 -46.4231 -1.00005
    endloop
  endfacet
  facet normal 0 0 -1
    outer loop
      vertex -29.9231 -43.2804 -1.00005
      vertex 26.7804 -46.4231 -1.00005
      vertex 26 -46.5 -1.00005
    endloop
  endfacet
  facet normal 0 0 -1
    outer loop
      vertex -29.9231 -43.2804 -1.00005
      vertex 26 -46.5 -1.00005
      vertex -26 -46.5 -1.00005
    endloop
  endfacet
  facet normal 0 0 -1
    outer loop
      vertex -29.9231 -43.2804 -1.00005
      vertex -26 -46.5 -1.00005
      vertex -26.7804 -46.4231 -1.00005
    endloop
  endfacet
  facet normal 0 0 -1
    outer loop
      vertex -29.9231 -43.2804 -1.00005
      vertex -26.7804 -46.4231 -1.00005
      vertex -27.5307 -46.1955 -1.00005
    endloop
  endfacet
  facet normal 0 0 -1
    outer loop
      vertex -29.9231 -43.2804 -1.00005
      vertex -27.5307 -46.1955 -1.00005
      vertex -28.2223 -45.8259 -1.00005
    endloop
  endfacet
  facet normal 0 0 -1
    outer loop
      vertex -29.9231 -43.2804 -1.00005
      vertex -28.2223 -45.8259 -1.00005
      vertex -28.8284 -45.3284 -1.00005
    endloop
  endfacet
  facet normal 0 0 -1
    outer loop
      vertex -29.9231 -43.2804 -1.00005
      vertex -28.8284 -45.3284 -1.00005
      vertex -29.3259 -44.7223 -1.00005
    endloop
  endfacet
  facet normal 0 0 -1
    outer loop
      vertex -29.9231 -43.2804 -1.00005
      vertex -29.3259 -44.7223 -1.00005
      vertex -29.6955 -44.0307 -1.00005
    endloop
  endfacet
  facet normal -0.829287 0.0816778 -0.552821
    outer loop
      vertex -30 42.5 -1.00005
      vertex -30.9039 43.4755 0.50005
      vertex -29.9231 43.2804 -1.00005
    endloop
  endfacet
  facet normal -0.797418 0.241894 -0.552821
    outer loop
      vertex -29.9231 43.2804 -1.00005
      vertex -30.9039 43.4755 0.50005
      vertex -30.6194 44.4134 0.50005
    endloop
  endfacet
  facet normal -0.95694 0.290284 0
    outer loop
      vertex -30.9039 43.4755 0.50005
      vertex -30.9039 43.4755 1.00005
      vertex -30.6194 44.4134 0.50005
    endloop
  endfacet
  facet normal -0.95694 0.290284 0
    outer loop
      vertex -30.6194 44.4134 0.50005
      vertex -30.9039 43.4755 1.00005
      vertex -30.6194 44.4134 1.00005
    endloop
  endfacet
  facet normal -0.881921 0.471397 0
    outer loop
      vertex -30.6194 44.4134 0.50005
      vertex -30.6194 44.4134 1.00005
      vertex -30.1573 45.2779 0.50005
    endloop
  endfacet
  facet normal -0.881921 0.471397 0
    outer loop
      vertex -30.1573 45.2779 0.50005
      vertex -30.6194 44.4134 1.00005
      vertex -30.1573 45.2779 1.00005
    endloop
  endfacet
  facet normal -0.773011 0.634393 0
    outer loop
      vertex -30.1573 45.2779 0.50005
      vertex -30.1573 45.2779 1.00005
      vertex -29.5355 46.0355 0.50005
    endloop
  endfacet
  facet normal -0.773011 0.634393 0
    outer loop
      vertex -29.5355 46.0355 0.50005
      vertex -30.1573 45.2779 1.00005
      vertex -29.5355 46.0355 1.00005
    endloop
  endfacet
  facet normal -0.634393 0.773011 0
    outer loop
      vertex -29.5355 46.0355 0.50005
      vertex -29.5355 46.0355 1.00005
      vertex -28.7779 46.6573 0.50005
    endloop
  endfacet
  facet normal -0.634393 0.773011 0
    outer loop
      vertex -28.7779 46.6573 0.50005
      vertex -29.5355 46.0355 1.00005
      vertex -28.7779 46.6573 1.00005
    endloop
  endfacet
  facet normal -0.471397 0.881921 0
    outer loop
      vertex -28.7779 46.6573 0.50005
      vertex -28.7779 46.6573 1.00005
      vertex -27.9134 47.1194 0.50005
    endloop
  endfacet
  facet normal -0.471397 0.881921 0
    outer loop
      vertex -27.9134 47.1194 0.50005
      vertex -28.7779 46.6573 1.00005
      vertex -27.9134 47.1194 1.00005
    endloop
  endfacet
  facet normal -0.290284 0.95694 0
    outer loop
      vertex -27.9134 47.1194 0.50005
      vertex -27.9134 47.1194 1.00005
      vertex -26.9755 47.4039 0.50005
    endloop
  endfacet
  facet normal -0.290284 0.95694 0
    outer loop
      vertex -26.9755 47.4039 0.50005
      vertex -27.9134 47.1194 1.00005
      vertex -26.9755 47.4039 1.00005
    endloop
  endfacet
  facet normal -0.0980175 0.995185 0
    outer loop
      vertex -26.9755 47.4039 0.50005
      vertex -26.9755 47.4039 1.00005
      vertex -26 47.5 0.50005
    endloop
  endfacet
  facet normal -0.0980175 0.995185 0
    outer loop
      vertex -26 47.5 0.50005
      vertex -26.9755 47.4039 1.00005
      vertex -26 47.5 1.00005
    endloop
  endfacet
  facet normal 0 1 0
    outer loop
      vertex -26 47.5 0.50005
      vertex -26 47.5 1.00005
      vertex 26 47.5 0.50005
    endloop
  endfacet
  facet normal 0 1 0
    outer loop
      vertex 26 47.5 0.50005
      vertex -26 47.5 1.00005
      vertex 26 47.5 1.00005
    endloop
  endfacet
  facet normal 0.0980175 0.995185 0
    outer loop
      vertex 26 47.5 0.50005
      vertex 26 47.5 1.00005
      vertex 26.9755 47.4039 0.50005
    endloop
  endfacet
  facet normal 0.0980175 0.995185 0
    outer loop
      vertex 26.9755 47.4039 0.50005
      vertex 26 47.5 1.00005
      vertex 26.9755 47.4039 1.00005
    endloop
  endfacet
  facet normal 0.290284 0.95694 0
    outer loop
      vertex 26.9755 47.4039 0.50005
      vertex 26.9755 47.4039 1.00005
      vertex 27.9134 47.1194 0.50005
    endloop
  endfacet
  facet normal 0.290284 0.95694 0
    outer loop
      vertex 27.9134 47.1194 0.50005
      vertex 26.9755 47.4039 1.00005
      vertex 27.9134 47.1194 1.00005
    endloop
  endfacet
  facet normal 0.471397 0.881921 0
    outer loop
      vertex 27.9134 47.1194 0.50005
      vertex 27.9134 47.1194 1.00005
      vertex 28.7779 46.6573 0.50005
    endloop
  endfacet
  facet normal 0.471397 0.881921 0
    outer loop
      vertex 28.7779 46.6573 0.50005
      vertex 27.9134 47.1194 1.00005
      vertex 28.7779 46.6573 1.00005
    endloop
  endfacet
  facet normal 0.634393 0.773011 0
    outer loop
      vertex 28.7779 46.6573 0.50005
      vertex 28.7779 46.6573 1.00005
      vertex 29.5355 46.0355 0.50005
    endloop
  endfacet
  facet normal 0.634393 0.773011 0
    outer loop
      vertex 29.5355 46.0355 0.50005
      vertex 28.7779 46.6573 1.00005
      vertex 29.5355 46.0355 1.00005
    endloop
  endfacet
  facet normal 0.773011 0.634393 0
    outer loop
      vertex 30.1573 45.2779 0.50005
      vertex 29.5355 46.0355 0.50005
      vertex 29.5355 46.0355 1.00005
    endloop
  endfacet
  facet normal 0.773011 0.634393 -0
    outer loop
      vertex 30.1573 45.2779 1.00005
      vertex 30.1573 45.2779 0.50005
      vertex 29.5355 46.0355 1.00005
    endloop
  endfacet
  facet normal 0.881921 0.471397 0
    outer loop
      vertex 30.6194 44.4134 0.50005
      vertex 30.1573 45.2779 0.50005
      vertex 30.1573 45.2779 1.00005
    endloop
  endfacet
  facet normal 0.881921 0.471397 -0
    outer loop
      vertex 30.6194 44.4134 1.00005
      vertex 30.6194 44.4134 0.50005
      vertex 30.1573 45.2779 1.00005
    endloop
  endfacet
  facet normal 0.95694 0.290284 0
    outer loop
      vertex 30.9039 43.4755 0.50005
      vertex 30.6194 44.4134 0.50005
      vertex 30.6194 44.4134 1.00005
    endloop
  endfacet
  facet normal 0.95694 0.290284 -0
    outer loop
      vertex 30.9039 43.4755 1.00005
      vertex 30.9039 43.4755 0.50005
      vertex 30.6194 44.4134 1.00005
    endloop
  endfacet
  facet normal 0.995185 0.0980175 0
    outer loop
      vertex 31 42.5 0.50005
      vertex 30.9039 43.4755 0.50005
      vertex 30.9039 43.4755 1.00005
    endloop
  endfacet
  facet normal 0.995185 0.0980175 -0
    outer loop
      vertex 31 42.5 1.00005
      vertex 31 42.5 0.50005
      vertex 30.9039 43.4755 1.00005
    endloop
  endfacet
  facet normal 1 0 -0
    outer loop
      vertex 31 -42.5 1.00005
      vertex 31 -42.5 0.50005
      vertex 31 42.5 0.50005
    endloop
  endfacet
  facet normal 1 0 0
    outer loop
      vertex 31 42.5 1.00005
      vertex 31 -42.5 1.00005
      vertex 31 42.5 0.50005
    endloop
  endfacet
  facet normal 0.995185 -0.0980175 0
    outer loop
      vertex 30.9039 -43.4755 1.00005
      vertex 30.9039 -43.4755 0.50005
      vertex 31 -42.5 0.50005
    endloop
  endfacet
  facet normal 0.995185 -0.0980175 0
    outer loop
      vertex 31 -42.5 1.00005
      vertex 30.9039 -43.4755 1.00005
      vertex 31 -42.5 0.50005
    endloop
  endfacet
  facet normal 0.95694 -0.290284 0
    outer loop
      vertex 30.6194 -44.4134 1.00005
      vertex 30.6194 -44.4134 0.50005
      vertex 30.9039 -43.4755 0.50005
    endloop
  endfacet
  facet normal 0.95694 -0.290284 0
    outer loop
      vertex 30.9039 -43.4755 1.00005
      vertex 30.6194 -44.4134 1.00005
      vertex 30.9039 -43.4755 0.50005
    endloop
  endfacet
  facet normal 0.881921 -0.471397 0
    outer loop
      vertex 30.1573 -45.2779 1.00005
      vertex 30.1573 -45.2779 0.50005
      vertex 30.6194 -44.4134 0.50005
    endloop
  endfacet
  facet normal 0.881921 -0.471397 0
    outer loop
      vertex 30.6194 -44.4134 1.00005
      vertex 30.1573 -45.2779 1.00005
      vertex 30.6194 -44.4134 0.50005
    endloop
  endfacet
  facet normal 0.773011 -0.634393 0
    outer loop
      vertex 29.5355 -46.0355 1.00005
      vertex 29.5355 -46.0355 0.50005
      vertex 30.1573 -45.2779 0.50005
    endloop
  endfacet
  facet normal 0.773011 -0.634393 0
    outer loop
      vertex 30.1573 -45.2779 1.00005
      vertex 29.5355 -46.0355 1.00005
      vertex 30.1573 -45.2779 0.50005
    endloop
  endfacet
  facet normal 0.634393 -0.773011 0
    outer loop
      vertex 28.7779 -46.6573 1.00005
      vertex 28.7779 -46.6573 0.50005
      vertex 29.5355 -46.0355 0.50005
    endloop
  endfacet
  facet normal 0.634393 -0.773011 0
    outer loop
      vertex 29.5355 -46.0355 1.00005
      vertex 28.7779 -46.6573 1.00005
      vertex 29.5355 -46.0355 0.50005
    endloop
  endfacet
  facet normal 0.471397 -0.881921 0
    outer loop
      vertex 27.9134 -47.1194 1.00005
      vertex 27.9134 -47.1194 0.50005
      vertex 28.7779 -46.6573 0.50005
    endloop
  endfacet
  facet normal 0.471397 -0.881921 0
    outer loop
      vertex 28.7779 -46.6573 1.00005
      vertex 27.9134 -47.1194 1.00005
      vertex 28.7779 -46.6573 0.50005
    endloop
  endfacet
  facet normal 0.290284 -0.95694 0
    outer loop
      vertex 26.9755 -47.4039 1.00005
      vertex 26.9755 -47.4039 0.50005
      vertex 27.9134 -47.1194 0.50005
    endloop
  endfacet
  facet normal 0.290284 -0.95694 0
    outer loop
      vertex 27.9134 -47.1194 1.00005
      vertex 26.9755 -47.4039 1.00005
      vertex 27.9134 -47.1194 0.50005
    endloop
  endfacet
  facet normal 0.0980175 -0.995185 0
    outer loop
      vertex 26 -47.5 1.00005
      vertex 26 -47.5 0.50005
      vertex 26.9755 -47.4039 0.50005
    endloop
  endfacet
  facet normal 0.0980175 -0.995185 0
    outer loop
      vertex 26.9755 -47.4039 1.00005
      vertex 26 -47.5 1.00005
      vertex 26.9755 -47.4039 0.50005
    endloop
  endfacet
  facet normal 0 -1 0
    outer loop
      vertex -26 -47.5 1.00005
      vertex -26 -47.5 0.50005
      vertex 26 -47.5 0.50005
    endloop
  endfacet
  facet normal 0 -1 0
    outer loop
      vertex 26 -47.5 1.00005
      vertex -26 -47.5 1.00005
      vertex 26 -47.5 0.50005
    endloop
  endfacet
  facet normal -0.0980175 -0.995185 0
    outer loop
      vertex -26.9755 -47.4039 1.00005
      vertex -26.9755 -47.4039 0.50005
      vertex -26 -47.5 0.50005
    endloop
  endfacet
  facet normal -0.0980175 -0.995185 0
    outer loop
      vertex -26 -47.5 1.00005
      vertex -26.9755 -47.4039 1.00005
      vertex -26 -47.5 0.50005
    endloop
  endfacet
  facet normal -0.290284 -0.95694 0
    outer loop
      vertex -27.9134 -47.1194 1.00005
      vertex -27.9134 -47.1194 0.50005
      vertex -26.9755 -47.4039 0.50005
    endloop
  endfacet
  facet normal -0.290284 -0.95694 0
    outer loop
      vertex -26.9755 -47.4039 1.00005
      vertex -27.9134 -47.1194 1.00005
      vertex -26.9755 -47.4039 0.50005
    endloop
  endfacet
  facet normal -0.471397 -0.881921 0
    outer loop
      vertex -28.7779 -46.6573 1.00005
      vertex -28.7779 -46.6573 0.50005
      vertex -27.9134 -47.1194 0.50005
    endloop
  endfacet
  facet normal -0.471397 -0.881921 0
    outer loop
      vertex -27.9134 -47.1194 1.00005
      vertex -28.7779 -46.6573 1.00005
      vertex -27.9134 -47.1194 0.50005
    endloop
  endfacet
  facet normal -0.634393 -0.773011 0
    outer loop
      vertex -29.5355 -46.0355 1.00005
      vertex -29.5355 -46.0355 0.50005
      vertex -28.7779 -46.6573 0.50005
    endloop
  endfacet
  facet normal -0.634393 -0.773011 0
    outer loop
      vertex -28.7779 -46.6573 1.00005
      vertex -29.5355 -46.0355 1.00005
      vertex -28.7779 -46.6573 0.50005
    endloop
  endfacet
  facet normal -0.773011 -0.634393 -0
    outer loop
      vertex -30.1573 -45.2779 0.50005
      vertex -29.5355 -46.0355 0.50005
      vertex -30.1573 -45.2779 1.00005
    endloop
  endfacet
  facet normal -0.773011 -0.634393 0
    outer loop
      vertex -30.1573 -45.2779 1.00005
      vertex -29.5355 -46.0355 0.50005
      vertex -29.5355 -46.0355 1.00005
    endloop
  endfacet
  facet normal -0.881921 -0.471397 -0
    outer loop
      vertex -30.6194 -44.4134 0.50005
      vertex -30.1573 -45.2779 0.50005
      vertex -30.6194 -44.4134 1.00005
    endloop
  endfacet
  facet normal -0.881921 -0.471397 0
    outer loop
      vertex -30.6194 -44.4134 1.00005
      vertex -30.1573 -45.2779 0.50005
      vertex -30.1573 -45.2779 1.00005
    endloop
  endfacet
  facet normal -1 -0 -0
    outer loop
      vertex -27.5 -40 1.00005
      vertex -27.5 -40 2.24995
      vertex -27.5 -35.25 1.00005
    endloop
  endfacet
  facet normal -1 0 0
    outer loop
      vertex -27.5 -35.25 1.00005
      vertex -27.5 -40 2.24995
      vertex -27.5 -35.25 2.24995
    endloop
  endfacet
  facet normal -0.995185 -0.0980173 -0
    outer loop
      vertex -27.5 -40 1.00005
      vertex -27.4231 -40.7804 1.00005
      vertex -27.5 -40 2.24995
    endloop
  endfacet
  facet normal -0.995185 -0.0980173 0
    outer loop
      vertex -27.5 -40 2.24995
      vertex -27.4231 -40.7804 1.00005
      vertex -27.4231 -40.7804 2.24995
    endloop
  endfacet
  facet normal -0.95694 -0.290284 -0
    outer loop
      vertex -27.4231 -40.7804 1.00005
      vertex -27.1955 -41.5307 1.00005
      vertex -27.4231 -40.7804 2.24995
    endloop
  endfacet
  facet normal -0.95694 -0.290284 0
    outer loop
      vertex -27.4231 -40.7804 2.24995
      vertex -27.1955 -41.5307 1.00005
      vertex -27.1955 -41.5307 2.24995
    endloop
  endfacet
  facet normal -0.881921 -0.471397 -0
    outer loop
      vertex -27.1955 -41.5307 1.00005
      vertex -26.8259 -42.2223 1.00005
      vertex -27.1955 -41.5307 2.24995
    endloop
  endfacet
  facet normal -0.881921 -0.471397 0
    outer loop
      vertex -27.1955 -41.5307 2.24995
      vertex -26.8259 -42.2223 1.00005
      vertex -26.8259 -42.2223 2.24995
    endloop
  endfacet
  facet normal -0.773011 -0.634393 -0
    outer loop
      vertex -26.8259 -42.2223 1.00005
      vertex -26.3284 -42.8284 1.00005
      vertex -26.8259 -42.2223 2.24995
    endloop
  endfacet
  facet normal -0.773011 -0.634393 0
    outer loop
      vertex -26.8259 -42.2223 2.24995
      vertex -26.3284 -42.8284 1.00005
      vertex -26.3284 -42.8284 2.24995
    endloop
  endfacet
  facet normal -0.634393 -0.773011 0
    outer loop
      vertex -26.3284 -42.8284 2.24995
      vertex -26.3284 -42.8284 1.00005
      vertex -25.7223 -43.3259 1.00005
    endloop
  endfacet
  facet normal -0.634393 -0.773011 0
    outer loop
      vertex -25.7223 -43.3259 2.24995
      vertex -26.3284 -42.8284 2.24995
      vertex -25.7223 -43.3259 1.00005
    endloop
  endfacet
  facet normal -0.471397 -0.881921 0
    outer loop
      vertex -25.7223 -43.3259 2.24995
      vertex -25.7223 -43.3259 1.00005
      vertex -25.0307 -43.6955 1.00005
    endloop
  endfacet
  facet normal -0.471397 -0.881921 0
    outer loop
      vertex -25.0307 -43.6955 2.24995
      vertex -25.7223 -43.3259 2.24995
      vertex -25.0307 -43.6955 1.00005
    endloop
  endfacet
  facet normal -0.290284 -0.95694 0
    outer loop
      vertex -25.0307 -43.6955 2.24995
      vertex -25.0307 -43.6955 1.00005
      vertex -24.2804 -43.9231 1.00005
    endloop
  endfacet
  facet normal -0.290284 -0.95694 0
    outer loop
      vertex -24.2804 -43.9231 2.24995
      vertex -25.0307 -43.6955 2.24995
      vertex -24.2804 -43.9231 1.00005
    endloop
  endfacet
  facet normal -0.0980173 -0.995185 0
    outer loop
      vertex -24.2804 -43.9231 2.24995
      vertex -24.2804 -43.9231 1.00005
      vertex -23.5 -44 1.00005
    endloop
  endfacet
  facet normal -0.0980173 -0.995185 0
    outer loop
      vertex -23.5 -44 2.24995
      vertex -24.2804 -43.9231 2.24995
      vertex -23.5 -44 1.00005
    endloop
  endfacet
  facet normal 0 -1 0
    outer loop
      vertex -23.5 -44 2.24995
      vertex -23.5 -44 1.00005
      vertex -18.75 -44 1.00005
    endloop
  endfacet
  facet normal 0 -1 0
    outer loop
      vertex -18.75 -44 2.24995
      vertex -23.5 -44 2.24995
      vertex -18.75 -44 1.00005
    endloop
  endfacet
  facet normal 1 0 0
    outer loop
      vertex -18.75 -35.25 1.00005
      vertex -18.75 -35.25 3.50005
      vertex -18.75 -43.2 3.50005
    endloop
  endfacet
  facet normal 1 0 0
    outer loop
      vertex -18.75 -44 1.00005
      vertex -18.75 -35.25 1.00005
      vertex -18.75 -44 2.24995
    endloop
  endfacet
  facet normal 1 0 0
    outer loop
      vertex -18.75 -44 2.24995
      vertex -18.75 -35.25 1.00005
      vertex -18.75 -43.2 3.50005
    endloop
  endfacet
  facet normal 0 1 -0
    outer loop
      vertex -26.7 -35.25 3.50005
      vertex -18.75 -35.25 3.50005
      vertex -27.5 -35.25 2.24995
    endloop
  endfacet
  facet normal 0 1 0
    outer loop
      vertex -27.5 -35.25 2.24995
      vertex -18.75 -35.25 3.50005
      vertex -18.75 -35.25 1.00005
    endloop
  endfacet
  facet normal 0 1 -0
    outer loop
      vertex -27.5 -35.25 2.24995
      vertex -18.75 -35.25 1.00005
      vertex -27.5 -35.25 1.00005
    endloop
  endfacet
  facet normal -1 -0 -0
    outer loop
      vertex -27.5 35.25 1.00005
      vertex -27.5 35.25 2.24995
      vertex -27.5 40 1.00005
    endloop
  endfacet
  facet normal -1 0 0
    outer loop
      vertex -27.5 40 1.00005
      vertex -27.5 35.25 2.24995
      vertex -27.5 40 2.24995
    endloop
  endfacet
  facet normal 0 -1 0
    outer loop
      vertex -18.75 35.25 1.00005
      vertex -18.75 35.25 3.50005
      vertex -26.7 35.25 3.50005
    endloop
  endfacet
  facet normal -0 -1 -0
    outer loop
      vertex -27.5 35.25 1.00005
      vertex -18.75 35.25 1.00005
      vertex -27.5 35.25 2.24995
    endloop
  endfacet
  facet normal -0 -1 0
    outer loop
      vertex -27.5 35.25 2.24995
      vertex -18.75 35.25 1.00005
      vertex -26.7 35.25 3.50005
    endloop
  endfacet
  facet normal 1 0 0
    outer loop
      vertex -18.75 44 1.00005
      vertex -18.75 44 2.24995
      vertex -18.75 43.2 3.50005
    endloop
  endfacet
  facet normal 1 0 0
    outer loop
      vertex -18.75 35.25 1.00005
      vertex -18.75 44 1.00005
      vertex -18.75 35.25 3.50005
    endloop
  endfacet
  facet normal 1 0 0
    outer loop
      vertex -18.75 35.25 3.50005
      vertex -18.75 44 1.00005
      vertex -18.75 43.2 3.50005
    endloop
  endfacet
  facet normal 0 1 0
    outer loop
      vertex -23.5 44 1.00005
      vertex -23.5 44 2.24995
      vertex -18.75 44 1.00005
    endloop
  endfacet
  facet normal 0 1 0
    outer loop
      vertex -18.75 44 1.00005
      vertex -23.5 44 2.24995
      vertex -18.75 44 2.24995
    endloop
  endfacet
  facet normal -0.0980173 0.995185 0
    outer loop
      vertex -24.2804 43.9231 1.00005
      vertex -24.2804 43.9231 2.24995
      vertex -23.5 44 1.00005
    endloop
  endfacet
  facet normal -0.0980173 0.995185 0
    outer loop
      vertex -23.5 44 1.00005
      vertex -24.2804 43.9231 2.24995
      vertex -23.5 44 2.24995
    endloop
  endfacet
  facet normal -0.290284 0.95694 0
    outer loop
      vertex -25.0307 43.6955 1.00005
      vertex -25.0307 43.6955 2.24995
      vertex -24.2804 43.9231 1.00005
    endloop
  endfacet
  facet normal -0.290284 0.95694 0
    outer loop
      vertex -24.2804 43.9231 1.00005
      vertex -25.0307 43.6955 2.24995
      vertex -24.2804 43.9231 2.24995
    endloop
  endfacet
  facet normal -0.471397 0.881921 0
    outer loop
      vertex -25.7223 43.3259 1.00005
      vertex -25.7223 43.3259 2.24995
      vertex -25.0307 43.6955 1.00005
    endloop
  endfacet
  facet normal -0.471397 0.881921 0
    outer loop
      vertex -25.0307 43.6955 1.00005
      vertex -25.7223 43.3259 2.24995
      vertex -25.0307 43.6955 2.24995
    endloop
  endfacet
  facet normal -0.634393 0.773011 0
    outer loop
      vertex -26.3284 42.8284 1.00005
      vertex -26.3284 42.8284 2.24995
      vertex -25.7223 43.3259 1.00005
    endloop
  endfacet
  facet normal -0.634393 0.773011 0
    outer loop
      vertex -25.7223 43.3259 1.00005
      vertex -26.3284 42.8284 2.24995
      vertex -25.7223 43.3259 2.24995
    endloop
  endfacet
  facet normal -0.773011 0.634393 0
    outer loop
      vertex -26.8259 42.2223 1.00005
      vertex -26.8259 42.2223 2.24995
      vertex -26.3284 42.8284 1.00005
    endloop
  endfacet
  facet normal -0.773011 0.634393 0
    outer loop
      vertex -26.3284 42.8284 1.00005
      vertex -26.8259 42.2223 2.24995
      vertex -26.3284 42.8284 2.24995
    endloop
  endfacet
  facet normal -0.881921 0.471397 0
    outer loop
      vertex -27.1955 41.5307 1.00005
      vertex -27.1955 41.5307 2.24995
      vertex -26.8259 42.2223 1.00005
    endloop
  endfacet
  facet normal -0.881921 0.471397 0
    outer loop
      vertex -26.8259 42.2223 1.00005
      vertex -27.1955 41.5307 2.24995
      vertex -26.8259 42.2223 2.24995
    endloop
  endfacet
  facet normal -0.95694 0.290284 0
    outer loop
      vertex -27.4231 40.7804 1.00005
      vertex -27.4231 40.7804 2.24995
      vertex -27.1955 41.5307 1.00005
    endloop
  endfacet
  facet normal -0.95694 0.290284 0
    outer loop
      vertex -27.1955 41.5307 1.00005
      vertex -27.4231 40.7804 2.24995
      vertex -27.1955 41.5307 2.24995
    endloop
  endfacet
  facet normal -0.995185 0.0980173 0
    outer loop
      vertex -27.5 40 1.00005
      vertex -27.5 40 2.24995
      vertex -27.4231 40.7804 1.00005
    endloop
  endfacet
  facet normal -0.995185 0.0980173 0
    outer loop
      vertex -27.4231 40.7804 1.00005
      vertex -27.5 40 2.24995
      vertex -27.4231 40.7804 2.24995
    endloop
  endfacet
  facet normal -1 0 0
    outer loop
      vertex 18.75 -43.2 3.50005
      vertex 18.75 -35.25 3.50005
      vertex 18.75 -44 2.24995
    endloop
  endfacet
  facet normal -1 -0 0
    outer loop
      vertex 18.75 -44 2.24995
      vertex 18.75 -35.25 3.50005
      vertex 18.75 -35.25 1.00005
    endloop
  endfacet
  facet normal -1 0 0
    outer loop
      vertex 18.75 -44 2.24995
      vertex 18.75 -35.25 1.00005
      vertex 18.75 -44 1.00005
    endloop
  endfacet
  facet normal 0 -1 0
    outer loop
      vertex 18.75 -44 2.24995
      vertex 18.75 -44 1.00005
      vertex 23.5 -44 1.00005
    endloop
  endfacet
  facet normal 0 -1 0
    outer loop
      vertex 23.5 -44 2.24995
      vertex 18.75 -44 2.24995
      vertex 23.5 -44 1.00005
    endloop
  endfacet
  facet normal 0.0980173 -0.995185 0
    outer loop
      vertex 23.5 -44 2.24995
      vertex 23.5 -44 1.00005
      vertex 24.2804 -43.9231 1.00005
    endloop
  endfacet
  facet normal 0.0980173 -0.995185 0
    outer loop
      vertex 24.2804 -43.9231 2.24995
      vertex 23.5 -44 2.24995
      vertex 24.2804 -43.9231 1.00005
    endloop
  endfacet
  facet normal 0.290284 -0.95694 0
    outer loop
      vertex 24.2804 -43.9231 2.24995
      vertex 24.2804 -43.9231 1.00005
      vertex 25.0307 -43.6955 1.00005
    endloop
  endfacet
  facet normal 0.290284 -0.95694 0
    outer loop
      vertex 25.0307 -43.6955 2.24995
      vertex 24.2804 -43.9231 2.24995
      vertex 25.0307 -43.6955 1.00005
    endloop
  endfacet
  facet normal 0.471397 -0.881921 0
    outer loop
      vertex 25.0307 -43.6955 2.24995
      vertex 25.0307 -43.6955 1.00005
      vertex 25.7223 -43.3259 1.00005
    endloop
  endfacet
  facet normal 0.471397 -0.881921 0
    outer loop
      vertex 25.7223 -43.3259 2.24995
      vertex 25.0307 -43.6955 2.24995
      vertex 25.7223 -43.3259 1.00005
    endloop
  endfacet
  facet normal 0.634393 -0.773011 0
    outer loop
      vertex 25.7223 -43.3259 2.24995
      vertex 25.7223 -43.3259 1.00005
      vertex 26.3284 -42.8284 1.00005
    endloop
  endfacet
  facet normal 0.634393 -0.773011 0
    outer loop
      vertex 26.3284 -42.8284 2.24995
      vertex 25.7223 -43.3259 2.24995
      vertex 26.3284 -42.8284 1.00005
    endloop
  endfacet
  facet normal 0.773011 -0.634393 0
    outer loop
      vertex 26.3284 -42.8284 2.24995
      vertex 26.3284 -42.8284 1.00005
      vertex 26.8259 -42.2223 1.00005
    endloop
  endfacet
  facet normal 0.773011 -0.634393 0
    outer loop
      vertex 26.8259 -42.2223 2.24995
      vertex 26.3284 -42.8284 2.24995
      vertex 26.8259 -42.2223 1.00005
    endloop
  endfacet
  facet normal 0.881921 -0.471397 0
    outer loop
      vertex 26.8259 -42.2223 2.24995
      vertex 26.8259 -42.2223 1.00005
      vertex 27.1955 -41.5307 1.00005
    endloop
  endfacet
  facet normal 0.881921 -0.471397 0
    outer loop
      vertex 27.1955 -41.5307 2.24995
      vertex 26.8259 -42.2223 2.24995
      vertex 27.1955 -41.5307 1.00005
    endloop
  endfacet
  facet normal 0.95694 -0.290284 0
    outer loop
      vertex 27.1955 -41.5307 2.24995
      vertex 27.1955 -41.5307 1.00005
      vertex 27.4231 -40.7804 1.00005
    endloop
  endfacet
  facet normal 0.95694 -0.290284 0
    outer loop
      vertex 27.4231 -40.7804 2.24995
      vertex 27.1955 -41.5307 2.24995
      vertex 27.4231 -40.7804 1.00005
    endloop
  endfacet
  facet normal 0.995185 -0.0980173 0
    outer loop
      vertex 27.4231 -40.7804 2.24995
      vertex 27.4231 -40.7804 1.00005
      vertex 27.5 -40 1.00005
    endloop
  endfacet
  facet normal 0.995185 -0.0980173 0
    outer loop
      vertex 27.5 -40 2.24995
      vertex 27.4231 -40.7804 2.24995
      vertex 27.5 -40 1.00005
    endloop
  endfacet
  facet normal 1 0 -0
    outer loop
      vertex 27.5 -40 2.24995
      vertex 27.5 -40 1.00005
      vertex 27.5 -35.25 1.00005
    endloop
  endfacet
  facet normal 1 -0 0
    outer loop
      vertex 27.5 -35.25 2.24995
      vertex 27.5 -40 2.24995
      vertex 27.5 -35.25 1.00005
    endloop
  endfacet
  facet normal 0 1 -0
    outer loop
      vertex 26.7 -35.25 3.50005
      vertex 27.5 -35.25 2.24995
      vertex 18.75 -35.25 3.50005
    endloop
  endfacet
  facet normal 0 1 0
    outer loop
      vertex 18.75 -35.25 3.50005
      vertex 27.5 -35.25 2.24995
      vertex 27.5 -35.25 1.00005
    endloop
  endfacet
  facet normal 0 1 -0
    outer loop
      vertex 18.75 -35.25 3.50005
      vertex 27.5 -35.25 1.00005
      vertex 18.75 -35.25 1.00005
    endloop
  endfacet
  facet normal 0 -1 0
    outer loop
      vertex 27.5 35.25 1.00005
      vertex 27.5 35.25 2.24995
      vertex 26.7 35.25 3.50005
    endloop
  endfacet
  facet normal -0 -1 -0
    outer loop
      vertex 18.75 35.25 1.00005
      vertex 27.5 35.25 1.00005
      vertex 18.75 35.25 3.50005
    endloop
  endfacet
  facet normal 0 -1 0
    outer loop
      vertex 18.75 35.25 3.50005
      vertex 27.5 35.25 1.00005
      vertex 26.7 35.25 3.50005
    endloop
  endfacet
  facet normal -1 0 0
    outer loop
      vertex 18.75 43.2 3.50005
      vertex 18.75 44 2.24995
      vertex 18.75 35.25 3.50005
    endloop
  endfacet
  facet normal -1 0 0
    outer loop
      vertex 18.75 35.25 3.50005
      vertex 18.75 44 2.24995
      vertex 18.75 44 1.00005
    endloop
  endfacet
  facet normal -1 0 0
    outer loop
      vertex 18.75 35.25 3.50005
      vertex 18.75 44 1.00005
      vertex 18.75 35.25 1.00005
    endloop
  endfacet
  facet normal 1 0 -0
    outer loop
      vertex 27.5 35.25 2.24995
      vertex 27.5 35.25 1.00005
      vertex 27.5 40 1.00005
    endloop
  endfacet
  facet normal 1 -0 0
    outer loop
      vertex 27.5 40 2.24995
      vertex 27.5 35.25 2.24995
      vertex 27.5 40 1.00005
    endloop
  endfacet
  facet normal 0.995185 0.0980173 0
    outer loop
      vertex 27.5 40 1.00005
      vertex 27.4231 40.7804 1.00005
      vertex 27.4231 40.7804 2.24995
    endloop
  endfacet
  facet normal 0.995185 0.0980173 -0
    outer loop
      vertex 27.5 40 2.24995
      vertex 27.5 40 1.00005
      vertex 27.4231 40.7804 2.24995
    endloop
  endfacet
  facet normal 0.95694 0.290284 0
    outer loop
      vertex 27.4231 40.7804 1.00005
      vertex 27.1955 41.5307 1.00005
      vertex 27.1955 41.5307 2.24995
    endloop
  endfacet
  facet normal 0.95694 0.290284 -0
    outer loop
      vertex 27.4231 40.7804 2.24995
      vertex 27.4231 40.7804 1.00005
      vertex 27.1955 41.5307 2.24995
    endloop
  endfacet
  facet normal 0.881921 0.471397 0
    outer loop
      vertex 27.1955 41.5307 1.00005
      vertex 26.8259 42.2223 1.00005
      vertex 26.8259 42.2223 2.24995
    endloop
  endfacet
  facet normal 0.881921 0.471397 -0
    outer loop
      vertex 27.1955 41.5307 2.24995
      vertex 27.1955 41.5307 1.00005
      vertex 26.8259 42.2223 2.24995
    endloop
  endfacet
  facet normal 0.773011 0.634393 0
    outer loop
      vertex 26.8259 42.2223 1.00005
      vertex 26.3284 42.8284 1.00005
      vertex 26.3284 42.8284 2.24995
    endloop
  endfacet
  facet normal 0.773011 0.634393 -0
    outer loop
      vertex 26.8259 42.2223 2.24995
      vertex 26.8259 42.2223 1.00005
      vertex 26.3284 42.8284 2.24995
    endloop
  endfacet
  facet normal 0.634393 0.773011 0
    outer loop
      vertex 25.7223 43.3259 1.00005
      vertex 25.7223 43.3259 2.24995
      vertex 26.3284 42.8284 1.00005
    endloop
  endfacet
  facet normal 0.634393 0.773011 0
    outer loop
      vertex 26.3284 42.8284 1.00005
      vertex 25.7223 43.3259 2.24995
      vertex 26.3284 42.8284 2.24995
    endloop
  endfacet
  facet normal 0.471397 0.881921 0
    outer loop
      vertex 25.0307 43.6955 1.00005
      vertex 25.0307 43.6955 2.24995
      vertex 25.7223 43.3259 1.00005
    endloop
  endfacet
  facet normal 0.471397 0.881921 0
    outer loop
      vertex 25.7223 43.3259 1.00005
      vertex 25.0307 43.6955 2.24995
      vertex 25.7223 43.3259 2.24995
    endloop
  endfacet
  facet normal 0.290284 0.95694 0
    outer loop
      vertex 24.2804 43.9231 1.00005
      vertex 24.2804 43.9231 2.24995
      vertex 25.0307 43.6955 1.00005
    endloop
  endfacet
  facet normal 0.290284 0.95694 0
    outer loop
      vertex 25.0307 43.6955 1.00005
      vertex 24.2804 43.9231 2.24995
      vertex 25.0307 43.6955 2.24995
    endloop
  endfacet
  facet normal 0.0980173 0.995185 0
    outer loop
      vertex 23.5 44 1.00005
      vertex 23.5 44 2.24995
      vertex 24.2804 43.9231 1.00005
    endloop
  endfacet
  facet normal 0.0980173 0.995185 0
    outer loop
      vertex 24.2804 43.9231 1.00005
      vertex 23.5 44 2.24995
      vertex 24.2804 43.9231 2.24995
    endloop
  endfacet
  facet normal 0 1 0
    outer loop
      vertex 18.75 44 1.00005
      vertex 18.75 44 2.24995
      vertex 23.5 44 1.00005
    endloop
  endfacet
  facet normal 0 1 0
    outer loop
      vertex 23.5 44 1.00005
      vertex 18.75 44 2.24995
      vertex 23.5 44 2.24995
    endloop
  endfacet
  facet normal -0.734905 -0.392815 -0.552821
    outer loop
      vertex -30.1573 -45.2779 0.50005
      vertex -30.6194 -44.4134 0.50005
      vertex -29.3259 -44.7223 -1.00005
    endloop
  endfacet
  facet normal -0.734905 -0.392815 -0.552821
    outer loop
      vertex -29.3259 -44.7223 -1.00005
      vertex -30.6194 -44.4134 0.50005
      vertex -29.6955 -44.0307 -1.00005
    endloop
  endfacet
  facet normal -0.64415 -0.52864 -0.552821
    outer loop
      vertex -28.8284 -45.3284 -1.00005
      vertex -30.1573 -45.2779 0.50005
      vertex -29.3259 -44.7223 -1.00005
    endloop
  endfacet
  facet normal -0.64415 -0.52864 -0.552821
    outer loop
      vertex -29.5355 -46.0355 0.50005
      vertex -30.1573 -45.2779 0.50005
      vertex -28.8284 -45.3284 -1.00005
    endloop
  endfacet
  facet normal -0.52864 -0.64415 -0.552821
    outer loop
      vertex -28.2223 -45.8259 -1.00005
      vertex -29.5355 -46.0355 0.50005
      vertex -28.8284 -45.3284 -1.00005
    endloop
  endfacet
  facet normal -0.52864 -0.64415 -0.552821
    outer loop
      vertex -28.7779 -46.6573 0.50005
      vertex -29.5355 -46.0355 0.50005
      vertex -28.2223 -45.8259 -1.00005
    endloop
  endfacet
  facet normal -0.392815 -0.734905 -0.552821
    outer loop
      vertex -27.5307 -46.1955 -1.00005
      vertex -28.7779 -46.6573 0.50005
      vertex -28.2223 -45.8259 -1.00005
    endloop
  endfacet
  facet normal -0.392815 -0.734905 -0.552821
    outer loop
      vertex -27.9134 -47.1194 0.50005
      vertex -28.7779 -46.6573 0.50005
      vertex -27.5307 -46.1955 -1.00005
    endloop
  endfacet
  facet normal -0.241894 -0.797418 -0.552821
    outer loop
      vertex -26.7804 -46.4231 -1.00005
      vertex -27.9134 -47.1194 0.50005
      vertex -27.5307 -46.1955 -1.00005
    endloop
  endfacet
  facet normal -0.241894 -0.797418 -0.552821
    outer loop
      vertex -26.9755 -47.4039 0.50005
      vertex -27.9134 -47.1194 0.50005
      vertex -26.7804 -46.4231 -1.00005
    endloop
  endfacet
  facet normal -0.0816778 -0.829287 -0.552821
    outer loop
      vertex -26 -46.5 -1.00005
      vertex -26.9755 -47.4039 0.50005
      vertex -26.7804 -46.4231 -1.00005
    endloop
  endfacet
  facet normal -0.081678 -0.829287 -0.552821
    outer loop
      vertex -26 -47.5 0.50005
      vertex -26.9755 -47.4039 0.50005
      vertex -26 -46.5 -1.00005
    endloop
  endfacet
  facet normal 0 -0.832067 -0.554675
    outer loop
      vertex 26 -47.5 0.50005
      vertex -26 -47.5 0.50005
      vertex -26 -46.5 -1.00005
    endloop
  endfacet
  facet normal 0 -0.832067 -0.554675
    outer loop
      vertex 26 -46.5 -1.00005
      vertex 26 -47.5 0.50005
      vertex -26 -46.5 -1.00005
    endloop
  endfacet
  facet normal 0.0816778 -0.829287 -0.552821
    outer loop
      vertex 26.7804 -46.4231 -1.00005
      vertex 26 -47.5 0.50005
      vertex 26 -46.5 -1.00005
    endloop
  endfacet
  facet normal 0.241894 -0.797418 -0.552821
    outer loop
      vertex 26.9755 -47.4039 0.50005
      vertex 26.7804 -46.4231 -1.00005
      vertex 27.5307 -46.1955 -1.00005
    endloop
  endfacet
  facet normal 0.081678 -0.829287 -0.552821
    outer loop
      vertex 26.9755 -47.4039 0.50005
      vertex 26 -47.5 0.50005
      vertex 26.7804 -46.4231 -1.00005
    endloop
  endfacet
  facet normal 0.241894 -0.797418 -0.552821
    outer loop
      vertex 27.9134 -47.1194 0.50005
      vertex 26.9755 -47.4039 0.50005
      vertex 27.5307 -46.1955 -1.00005
    endloop
  endfacet
  facet normal 0.392815 -0.734905 -0.552821
    outer loop
      vertex 27.9134 -47.1194 0.50005
      vertex 27.5307 -46.1955 -1.00005
      vertex 28.2223 -45.8259 -1.00005
    endloop
  endfacet
  facet normal 0.392815 -0.734905 -0.552821
    outer loop
      vertex 28.7779 -46.6573 0.50005
      vertex 27.9134 -47.1194 0.50005
      vertex 28.2223 -45.8259 -1.00005
    endloop
  endfacet
  facet normal 0.52864 -0.64415 -0.552821
    outer loop
      vertex 28.7779 -46.6573 0.50005
      vertex 28.2223 -45.8259 -1.00005
      vertex 28.8284 -45.3284 -1.00005
    endloop
  endfacet
  facet normal 0.52864 -0.64415 -0.552821
    outer loop
      vertex 29.5355 -46.0355 0.50005
      vertex 28.7779 -46.6573 0.50005
      vertex 28.8284 -45.3284 -1.00005
    endloop
  endfacet
  facet normal 0.64415 -0.52864 -0.552821
    outer loop
      vertex 29.5355 -46.0355 0.50005
      vertex 28.8284 -45.3284 -1.00005
      vertex 29.3259 -44.7223 -1.00005
    endloop
  endfacet
  facet normal 0.64415 -0.52864 -0.552821
    outer loop
      vertex 29.5355 -46.0355 0.50005
      vertex 29.3259 -44.7223 -1.00005
      vertex 30.1573 -45.2779 0.50005
    endloop
  endfacet
  facet normal 0.734905 -0.392815 -0.552821
    outer loop
      vertex 30.1573 -45.2779 0.50005
      vertex 29.3259 -44.7223 -1.00005
      vertex 29.6955 -44.0307 -1.00005
    endloop
  endfacet
  facet normal 0.734905 -0.392815 -0.552821
    outer loop
      vertex 30.1573 -45.2779 0.50005
      vertex 29.6955 -44.0307 -1.00005
      vertex 30.6194 -44.4134 0.50005
    endloop
  endfacet
  facet normal 0.797418 -0.241894 -0.552821
    outer loop
      vertex 30.6194 -44.4134 0.50005
      vertex 29.6955 -44.0307 -1.00005
      vertex 29.9231 -43.2804 -1.00005
    endloop
  endfacet
  facet normal 0.829287 -0.0816778 -0.552821
    outer loop
      vertex 30.9039 -43.4755 0.50005
      vertex 29.9231 -43.2804 -1.00005
      vertex 30 -42.5 -1.00005
    endloop
  endfacet
  facet normal 0.797418 -0.241894 -0.552821
    outer loop
      vertex 30.6194 -44.4134 0.50005
      vertex 29.9231 -43.2804 -1.00005
      vertex 30.9039 -43.4755 0.50005
    endloop
  endfacet
  facet normal 0.829287 -0.081678 -0.552821
    outer loop
      vertex 30.9039 -43.4755 0.50005
      vertex 30 -42.5 -1.00005
      vertex 31 -42.5 0.50005
    endloop
  endfacet
  facet normal 0.832067 0 -0.554675
    outer loop
      vertex 31 -42.5 0.50005
      vertex 30 -42.5 -1.00005
      vertex 30 42.5 -1.00005
    endloop
  endfacet
  facet normal 0.832067 0 -0.554675
    outer loop
      vertex 31 42.5 0.50005
      vertex 31 -42.5 0.50005
      vertex 30 42.5 -1.00005
    endloop
  endfacet
  facet normal 0.829287 0.0816778 -0.552821
    outer loop
      vertex 30 42.5 -1.00005
      vertex 29.9231 43.2804 -1.00005
      vertex 31 42.5 0.50005
    endloop
  endfacet
  facet normal 0.829287 0.081678 -0.552821
    outer loop
      vertex 31 42.5 0.50005
      vertex 29.9231 43.2804 -1.00005
      vertex 30.9039 43.4755 0.50005
    endloop
  endfacet
  facet normal 0.797418 0.241894 -0.552821
    outer loop
      vertex 29.9231 43.2804 -1.00005
      vertex 29.6955 44.0307 -1.00005
      vertex 30.9039 43.4755 0.50005
    endloop
  endfacet
  facet normal 0.797418 0.241894 -0.552821
    outer loop
      vertex 30.9039 43.4755 0.50005
      vertex 29.6955 44.0307 -1.00005
      vertex 30.6194 44.4134 0.50005
    endloop
  endfacet
  facet normal 0.734905 0.392815 -0.552821
    outer loop
      vertex 29.6955 44.0307 -1.00005
      vertex 29.3259 44.7223 -1.00005
      vertex 30.6194 44.4134 0.50005
    endloop
  endfacet
  facet normal 0.734905 0.392815 -0.552821
    outer loop
      vertex 30.6194 44.4134 0.50005
      vertex 29.3259 44.7223 -1.00005
      vertex 30.1573 45.2779 0.50005
    endloop
  endfacet
  facet normal 0.64415 0.52864 -0.552821
    outer loop
      vertex 29.3259 44.7223 -1.00005
      vertex 28.8284 45.3284 -1.00005
      vertex 30.1573 45.2779 0.50005
    endloop
  endfacet
  facet normal 0.64415 0.52864 -0.552821
    outer loop
      vertex 30.1573 45.2779 0.50005
      vertex 28.8284 45.3284 -1.00005
      vertex 29.5355 46.0355 0.50005
    endloop
  endfacet
  facet normal 0.52864 0.64415 -0.552821
    outer loop
      vertex 28.8284 45.3284 -1.00005
      vertex 28.2223 45.8259 -1.00005
      vertex 29.5355 46.0355 0.50005
    endloop
  endfacet
  facet normal 0.52864 0.64415 -0.552821
    outer loop
      vertex 29.5355 46.0355 0.50005
      vertex 28.2223 45.8259 -1.00005
      vertex 28.7779 46.6573 0.50005
    endloop
  endfacet
  facet normal 0.392815 0.734905 -0.552821
    outer loop
      vertex 28.2223 45.8259 -1.00005
      vertex 27.5307 46.1955 -1.00005
      vertex 28.7779 46.6573 0.50005
    endloop
  endfacet
  facet normal 0.392815 0.734905 -0.552821
    outer loop
      vertex 28.7779 46.6573 0.50005
      vertex 27.5307 46.1955 -1.00005
      vertex 27.9134 47.1194 0.50005
    endloop
  endfacet
  facet normal 0.241894 0.797418 -0.552821
    outer loop
      vertex 27.5307 46.1955 -1.00005
      vertex 26.7804 46.4231 -1.00005
      vertex 27.9134 47.1194 0.50005
    endloop
  endfacet
  facet normal 0.241894 0.797418 -0.552821
    outer loop
      vertex 27.9134 47.1194 0.50005
      vertex 26.7804 46.4231 -1.00005
      vertex 26.9755 47.4039 0.50005
    endloop
  endfacet
  facet normal 0.0816778 0.829287 -0.552821
    outer loop
      vertex 26.7804 46.4231 -1.00005
      vertex 26 46.5 -1.00005
      vertex 26.9755 47.4039 0.50005
    endloop
  endfacet
  facet normal 0.081678 0.829287 -0.552821
    outer loop
      vertex 26.9755 47.4039 0.50005
      vertex 26 46.5 -1.00005
      vertex 26 47.5 0.50005
    endloop
  endfacet
  facet normal 0 0.832067 -0.554675
    outer loop
      vertex -26 46.5 -1.00005
      vertex -26 47.5 0.50005
      vertex 26 46.5 -1.00005
    endloop
  endfacet
  facet normal -1.66436e-019 0.832067 -0.554675
    outer loop
      vertex 26 46.5 -1.00005
      vertex -26 47.5 0.50005
      vertex 26 47.5 0.50005
    endloop
  endfacet
  facet normal -0.0816778 0.829287 -0.552821
    outer loop
      vertex -26 46.5 -1.00005
      vertex -26.7804 46.4231 -1.00005
      vertex -26 47.5 0.50005
    endloop
  endfacet
  facet normal -0.081678 0.829287 -0.552821
    outer loop
      vertex -26.7804 46.4231 -1.00005
      vertex -26.9755 47.4039 0.50005
      vertex -26 47.5 0.50005
    endloop
  endfacet
  facet normal -0.241894 0.797418 -0.552821
    outer loop
      vertex -26.7804 46.4231 -1.00005
      vertex -27.5307 46.1955 -1.00005
      vertex -26.9755 47.4039 0.50005
    endloop
  endfacet
  facet normal -0.241894 0.797418 -0.552821
    outer loop
      vertex -27.5307 46.1955 -1.00005
      vertex -27.9134 47.1194 0.50005
      vertex -26.9755 47.4039 0.50005
    endloop
  endfacet
  facet normal -0.392815 0.734905 -0.552821
    outer loop
      vertex -27.5307 46.1955 -1.00005
      vertex -28.2223 45.8259 -1.00005
      vertex -27.9134 47.1194 0.50005
    endloop
  endfacet
  facet normal -0.392815 0.734905 -0.552821
    outer loop
      vertex -28.2223 45.8259 -1.00005
      vertex -28.7779 46.6573 0.50005
      vertex -27.9134 47.1194 0.50005
    endloop
  endfacet
  facet normal -0.52864 0.64415 -0.552821
    outer loop
      vertex -28.2223 45.8259 -1.00005
      vertex -28.8284 45.3284 -1.00005
      vertex -28.7779 46.6573 0.50005
    endloop
  endfacet
  facet normal -0.52864 0.64415 -0.552821
    outer loop
      vertex -28.8284 45.3284 -1.00005
      vertex -29.5355 46.0355 0.50005
      vertex -28.7779 46.6573 0.50005
    endloop
  endfacet
  facet normal -0.64415 0.52864 -0.552821
    outer loop
      vertex -29.3259 44.7223 -1.00005
      vertex -29.5355 46.0355 0.50005
      vertex -28.8284 45.3284 -1.00005
    endloop
  endfacet
  facet normal -0.64415 0.52864 -0.552821
    outer loop
      vertex -29.3259 44.7223 -1.00005
      vertex -30.1573 45.2779 0.50005
      vertex -29.5355 46.0355 0.50005
    endloop
  endfacet
  facet normal -0.734905 0.392815 -0.552821
    outer loop
      vertex -29.6955 44.0307 -1.00005
      vertex -30.1573 45.2779 0.50005
      vertex -29.3259 44.7223 -1.00005
    endloop
  endfacet
  facet normal -0.734905 0.392815 -0.552821
    outer loop
      vertex -29.6955 44.0307 -1.00005
      vertex -30.6194 44.4134 0.50005
      vertex -30.1573 45.2779 0.50005
    endloop
  endfacet
  facet normal -0.797418 0.241894 -0.552821
    outer loop
      vertex -29.9231 43.2804 -1.00005
      vertex -30.6194 44.4134 0.50005
      vertex -29.6955 44.0307 -1.00005
    endloop
  endfacet
  facet normal -0.842291 5.03946e-017 0.539023
    outer loop
      vertex -27.5 -40 2.24995
      vertex -26.7 -40 3.50005
      vertex -27.5 -35.25 2.24995
    endloop
  endfacet
  facet normal -0.842291 8.97629e-017 0.539023
    outer loop
      vertex -27.5 -35.25 2.24995
      vertex -26.7 -40 3.50005
      vertex -26.7 -35.25 3.50005
    endloop
  endfacet
  facet normal -0.839407 -0.0826746 0.537178
    outer loop
      vertex -26.7 -40 3.50005
      vertex -27.5 -40 2.24995
      vertex -27.4231 -40.7804 2.24995
    endloop
  endfacet
  facet normal -0.839408 -0.0826743 0.537178
    outer loop
      vertex -26.7 -40 3.50005
      vertex -27.4231 -40.7804 2.24995
      vertex -26.6385 -40.6243 3.50005
    endloop
  endfacet
  facet normal -0.80715 -0.244846 0.537178
    outer loop
      vertex -26.6385 -40.6243 3.50005
      vertex -27.4231 -40.7804 2.24995
      vertex -27.1955 -41.5307 2.24995
    endloop
  endfacet
  facet normal -0.80715 -0.244846 0.537178
    outer loop
      vertex -26.6385 -40.6243 3.50005
      vertex -27.1955 -41.5307 2.24995
      vertex -26.4564 -41.2246 3.50005
    endloop
  endfacet
  facet normal -0.743873 -0.397609 0.537178
    outer loop
      vertex -26.4564 -41.2246 3.50005
      vertex -27.1955 -41.5307 2.24995
      vertex -26.8259 -42.2223 2.24995
    endloop
  endfacet
  facet normal -0.743873 -0.397609 0.537177
    outer loop
      vertex -26.4564 -41.2246 3.50005
      vertex -26.8259 -42.2223 2.24995
      vertex -26.1607 -41.7778 3.50005
    endloop
  endfacet
  facet normal -0.652011 -0.535091 0.537178
    outer loop
      vertex -26.1607 -41.7778 3.50005
      vertex -26.8259 -42.2223 2.24995
      vertex -26.3284 -42.8284 2.24995
    endloop
  endfacet
  facet normal -0.652011 -0.535091 0.537178
    outer loop
      vertex -26.1607 -41.7778 3.50005
      vertex -26.3284 -42.8284 2.24995
      vertex -25.7627 -42.2627 3.50005
    endloop
  endfacet
  facet normal -0.535091 -0.652011 0.537178
    outer loop
      vertex -25.7627 -42.2627 3.50005
      vertex -26.3284 -42.8284 2.24995
      vertex -25.7223 -43.3259 2.24995
    endloop
  endfacet
  facet normal -0.535091 -0.652011 0.537178
    outer loop
      vertex -25.2778 -42.6607 3.50005
      vertex -25.7627 -42.2627 3.50005
      vertex -25.7223 -43.3259 2.24995
    endloop
  endfacet
  facet normal -0.397609 -0.743873 0.537178
    outer loop
      vertex -25.2778 -42.6607 3.50005
      vertex -25.7223 -43.3259 2.24995
      vertex -25.0307 -43.6955 2.24995
    endloop
  endfacet
  facet normal -0.397609 -0.743873 0.537178
    outer loop
      vertex -24.7246 -42.9564 3.50005
      vertex -25.2778 -42.6607 3.50005
      vertex -25.0307 -43.6955 2.24995
    endloop
  endfacet
  facet normal -0.244846 -0.80715 0.537178
    outer loop
      vertex -24.7246 -42.9564 3.50005
      vertex -25.0307 -43.6955 2.24995
      vertex -24.2804 -43.9231 2.24995
    endloop
  endfacet
  facet normal -0.244846 -0.80715 0.537178
    outer loop
      vertex -24.1243 -43.1385 3.50005
      vertex -24.7246 -42.9564 3.50005
      vertex -24.2804 -43.9231 2.24995
    endloop
  endfacet
  facet normal -0.0826746 -0.839408 0.537178
    outer loop
      vertex -24.1243 -43.1385 3.50005
      vertex -24.2804 -43.9231 2.24995
      vertex -23.5 -44 2.24995
    endloop
  endfacet
  facet normal -0.0826743 -0.839407 0.537178
    outer loop
      vertex -23.5 -43.2 3.50005
      vertex -24.1243 -43.1385 3.50005
      vertex -23.5 -44 2.24995
    endloop
  endfacet
  facet normal -4.80369e-018 -0.842291 0.539023
    outer loop
      vertex -23.5 -43.2 3.50005
      vertex -23.5 -44 2.24995
      vertex -18.75 -44 2.24995
    endloop
  endfacet
  facet normal 0 -0.842291 0.539023
    outer loop
      vertex -18.75 -43.2 3.50005
      vertex -23.5 -43.2 3.50005
      vertex -18.75 -44 2.24995
    endloop
  endfacet
  facet normal 1.89849e-015 1.86985e-016 1
    outer loop
      vertex -26.7 -35.25 3.50005
      vertex -26.7 -40 3.50005
      vertex -26.6385 -40.6243 3.50005
    endloop
  endfacet
  facet normal 3.01088e-016 1.60935e-016 1
    outer loop
      vertex -26.1607 -41.7778 3.50005
      vertex -26.7 -35.25 3.50005
      vertex -26.4564 -41.2246 3.50005
    endloop
  endfacet
  facet normal 5.66158e-016 1.71742e-016 1
    outer loop
      vertex -26.4564 -41.2246 3.50005
      vertex -26.7 -35.25 3.50005
      vertex -26.6385 -40.6243 3.50005
    endloop
  endfacet
  facet normal 1.84348e-016 1.5129e-016 1
    outer loop
      vertex -25.7627 -42.2627 3.50005
      vertex -26.7 -35.25 3.50005
      vertex -26.1607 -41.7778 3.50005
    endloop
  endfacet
  facet normal -9.11883e-016 4.77825e-018 1
    outer loop
      vertex -25.2778 -42.6607 3.50005
      vertex -26.7 -35.25 3.50005
      vertex -25.7627 -42.2627 3.50005
    endloop
  endfacet
  facet normal 1.07076e-016 2.00325e-016 1
    outer loop
      vertex -24.7246 -42.9564 3.50005
      vertex -26.7 -35.25 3.50005
      vertex -25.2778 -42.6607 3.50005
    endloop
  endfacet
  facet normal 5.68633e-017 1.87454e-016 1
    outer loop
      vertex -24.1243 -43.1385 3.50005
      vertex -26.7 -35.25 3.50005
      vertex -24.7246 -42.9564 3.50005
    endloop
  endfacet
  facet normal 1.71866e-017 1.74499e-016 1
    outer loop
      vertex -23.5 -43.2 3.50005
      vertex -26.7 -35.25 3.50005
      vertex -24.1243 -43.1385 3.50005
    endloop
  endfacet
  facet normal -0 1.67581e-016 1
    outer loop
      vertex -18.75 -43.2 3.50005
      vertex -26.7 -35.25 3.50005
      vertex -23.5 -43.2 3.50005
    endloop
  endfacet
  facet normal -0 1.67581e-016 1
    outer loop
      vertex -18.75 -35.25 3.50005
      vertex -26.7 -35.25 3.50005
      vertex -18.75 -43.2 3.50005
    endloop
  endfacet
  facet normal -0.839408 0.0826746 0.537178
    outer loop
      vertex -27.4231 40.7804 2.24995
      vertex -27.5 40 2.24995
      vertex -26.6385 40.6243 3.50005
    endloop
  endfacet
  facet normal -0.839407 0.0826743 0.537178
    outer loop
      vertex -26.6385 40.6243 3.50005
      vertex -27.5 40 2.24995
      vertex -26.7 40 3.50005
    endloop
  endfacet
  facet normal -0.842291 1.00789e-016 0.539023
    outer loop
      vertex -27.5 35.25 2.24995
      vertex -26.7 35.25 3.50005
      vertex -27.5 40 2.24995
    endloop
  endfacet
  facet normal -0.842291 2.99173e-017 0.539023
    outer loop
      vertex -27.5 40 2.24995
      vertex -26.7 35.25 3.50005
      vertex -26.7 40 3.50005
    endloop
  endfacet
  facet normal 1.15841e-034 9.34925e-017 1
    outer loop
      vertex -26.7 40 3.50005
      vertex -26.7 35.25 3.50005
      vertex -18.75 35.25 3.50005
    endloop
  endfacet
  facet normal 0 1.38778e-016 1
    outer loop
      vertex -23.5 43.2 3.50005
      vertex -26.7 40 3.50005
      vertex -18.75 43.2 3.50005
    endloop
  endfacet
  facet normal 1.0891e-017 1.11721e-016 1
    outer loop
      vertex -18.75 43.2 3.50005
      vertex -26.7 40 3.50005
      vertex -18.75 35.25 3.50005
    endloop
  endfacet
  facet normal -1.51617e-017 1.5394e-016 1
    outer loop
      vertex -24.1243 43.1385 3.50005
      vertex -26.7 40 3.50005
      vertex -23.5 43.2 3.50005
    endloop
  endfacet
  facet normal -5.71499e-017 1.88398e-016 1
    outer loop
      vertex -24.7246 42.9564 3.50005
      vertex -26.7 40 3.50005
      vertex -24.1243 43.1385 3.50005
    endloop
  endfacet
  facet normal -1.24897e-016 2.33665e-016 1
    outer loop
      vertex -25.2778 42.6607 3.50005
      vertex -26.7 40 3.50005
      vertex -24.7246 42.9564 3.50005
    endloop
  endfacet
  facet normal -2.44018e-016 2.97337e-016 1
    outer loop
      vertex -25.7627 42.2627 3.50005
      vertex -26.7 40 3.50005
      vertex -25.2778 42.6607 3.50005
    endloop
  endfacet
  facet normal -4.8285e-016 3.96264e-016 1
    outer loop
      vertex -26.1607 41.7778 3.50005
      vertex -26.7 40 3.50005
      vertex -25.7627 42.2627 3.50005
    endloop
  endfacet
  facet normal -1.08059e-015 5.77586e-016 1
    outer loop
      vertex -26.4564 41.2246 3.50005
      vertex -26.7 40 3.50005
      vertex -26.1607 41.7778 3.50005
    endloop
  endfacet
  facet normal 3.61125e-015 -3.55676e-016 1
    outer loop
      vertex -26.6385 40.6243 3.50005
      vertex -26.7 40 3.50005
      vertex -26.4564 41.2246 3.50005
    endloop
  endfacet
  facet normal 0 0.842291 0.539023
    outer loop
      vertex -23.5 43.2 3.50005
      vertex -18.75 43.2 3.50005
      vertex -23.5 44 2.24995
    endloop
  endfacet
  facet normal 0 0.842291 0.539023
    outer loop
      vertex -23.5 44 2.24995
      vertex -18.75 43.2 3.50005
      vertex -18.75 44 2.24995
    endloop
  endfacet
  facet normal -0.0826746 0.839407 0.537178
    outer loop
      vertex -23.5 44 2.24995
      vertex -24.2804 43.9231 2.24995
      vertex -23.5 43.2 3.50005
    endloop
  endfacet
  facet normal -0.0826743 0.839408 0.537178
    outer loop
      vertex -23.5 43.2 3.50005
      vertex -24.2804 43.9231 2.24995
      vertex -24.1243 43.1385 3.50005
    endloop
  endfacet
  facet normal -0.244846 0.80715 0.537178
    outer loop
      vertex -24.2804 43.9231 2.24995
      vertex -25.0307 43.6955 2.24995
      vertex -24.1243 43.1385 3.50005
    endloop
  endfacet
  facet normal -0.244846 0.80715 0.537178
    outer loop
      vertex -24.1243 43.1385 3.50005
      vertex -25.0307 43.6955 2.24995
      vertex -24.7246 42.9564 3.50005
    endloop
  endfacet
  facet normal -0.397609 0.743873 0.537178
    outer loop
      vertex -25.0307 43.6955 2.24995
      vertex -25.7223 43.3259 2.24995
      vertex -24.7246 42.9564 3.50005
    endloop
  endfacet
  facet normal -0.397609 0.743873 0.537177
    outer loop
      vertex -24.7246 42.9564 3.50005
      vertex -25.7223 43.3259 2.24995
      vertex -25.2778 42.6607 3.50005
    endloop
  endfacet
  facet normal -0.535091 0.652011 0.537178
    outer loop
      vertex -25.7223 43.3259 2.24995
      vertex -26.3284 42.8284 2.24995
      vertex -25.2778 42.6607 3.50005
    endloop
  endfacet
  facet normal -0.535091 0.652011 0.537178
    outer loop
      vertex -25.2778 42.6607 3.50005
      vertex -26.3284 42.8284 2.24995
      vertex -25.7627 42.2627 3.50005
    endloop
  endfacet
  facet normal -0.652011 0.535091 0.537178
    outer loop
      vertex -26.3284 42.8284 2.24995
      vertex -26.8259 42.2223 2.24995
      vertex -25.7627 42.2627 3.50005
    endloop
  endfacet
  facet normal -0.652011 0.535091 0.537178
    outer loop
      vertex -25.7627 42.2627 3.50005
      vertex -26.8259 42.2223 2.24995
      vertex -26.1607 41.7778 3.50005
    endloop
  endfacet
  facet normal -0.743873 0.397609 0.537178
    outer loop
      vertex -26.8259 42.2223 2.24995
      vertex -27.1955 41.5307 2.24995
      vertex -26.1607 41.7778 3.50005
    endloop
  endfacet
  facet normal -0.743873 0.397609 0.537178
    outer loop
      vertex -26.1607 41.7778 3.50005
      vertex -27.1955 41.5307 2.24995
      vertex -26.4564 41.2246 3.50005
    endloop
  endfacet
  facet normal -0.80715 0.244846 0.537178
    outer loop
      vertex -27.1955 41.5307 2.24995
      vertex -27.4231 40.7804 2.24995
      vertex -26.4564 41.2246 3.50005
    endloop
  endfacet
  facet normal -0.80715 0.244846 0.537178
    outer loop
      vertex -26.4564 41.2246 3.50005
      vertex -27.4231 40.7804 2.24995
      vertex -26.6385 40.6243 3.50005
    endloop
  endfacet
  facet normal -4.80369e-018 -0.842291 0.539023
    outer loop
      vertex 18.75 -43.2 3.50005
      vertex 18.75 -44 2.24995
      vertex 23.5 -44 2.24995
    endloop
  endfacet
  facet normal 0 -0.842291 0.539023
    outer loop
      vertex 23.5 -43.2 3.50005
      vertex 18.75 -43.2 3.50005
      vertex 23.5 -44 2.24995
    endloop
  endfacet
  facet normal 0 1.67581e-016 1
    outer loop
      vertex 18.75 -35.25 3.50005
      vertex 18.75 -43.2 3.50005
      vertex 23.5 -43.2 3.50005
    endloop
  endfacet
  facet normal -4.24569e-017 1.39962e-016 1
    outer loop
      vertex 24.7246 -42.9564 3.50005
      vertex 18.75 -35.25 3.50005
      vertex 24.1243 -43.1385 3.50005
    endloop
  endfacet
  facet normal -1.55879e-017 1.58267e-016 1
    outer loop
      vertex 24.1243 -43.1385 3.50005
      vertex 18.75 -35.25 3.50005
      vertex 23.5 -43.2 3.50005
    endloop
  endfacet
  facet normal -6.5332e-017 1.22228e-016 1
    outer loop
      vertex 25.2778 -42.6607 3.50005
      vertex 18.75 -35.25 3.50005
      vertex 24.7246 -42.9564 3.50005
    endloop
  endfacet
  facet normal 4.45913e-016 5.72565e-016 1
    outer loop
      vertex 25.7627 -42.2627 3.50005
      vertex 18.75 -35.25 3.50005
      vertex 25.2778 -42.6607 3.50005
    endloop
  endfacet
  facet normal -6.95631e-017 5.7089e-017 1
    outer loop
      vertex 26.1607 -41.7778 3.50005
      vertex 18.75 -35.25 3.50005
      vertex 25.7627 -42.2627 3.50005
    endloop
  endfacet
  facet normal -8.1485e-017 4.35547e-017 1
    outer loop
      vertex 26.4564 -41.2246 3.50005
      vertex 18.75 -35.25 3.50005
      vertex 26.1607 -41.7778 3.50005
    endloop
  endfacet
  facet normal -9.3308e-017 2.83046e-017 1
    outer loop
      vertex 26.6385 -40.6243 3.50005
      vertex 18.75 -35.25 3.50005
      vertex 26.4564 -41.2246 3.50005
    endloop
  endfacet
  facet normal -1.05512e-016 1.0392e-017 1
    outer loop
      vertex 26.7 -40 3.50005
      vertex 18.75 -35.25 3.50005
      vertex 26.6385 -40.6243 3.50005
    endloop
  endfacet
  facet normal -0 1.86985e-016 1
    outer loop
      vertex 26.7 -35.25 3.50005
      vertex 18.75 -35.25 3.50005
      vertex 26.7 -40 3.50005
    endloop
  endfacet
  facet normal 0.0826746 -0.839407 0.537178
    outer loop
      vertex 23.5 -43.2 3.50005
      vertex 23.5 -44 2.24995
      vertex 24.2804 -43.9231 2.24995
    endloop
  endfacet
  facet normal 0.0826743 -0.839408 0.537178
    outer loop
      vertex 24.1243 -43.1385 3.50005
      vertex 23.5 -43.2 3.50005
      vertex 24.2804 -43.9231 2.24995
    endloop
  endfacet
  facet normal 0.244846 -0.80715 0.537178
    outer loop
      vertex 25.0307 -43.6955 2.24995
      vertex 24.1243 -43.1385 3.50005
      vertex 24.2804 -43.9231 2.24995
    endloop
  endfacet
  facet normal 0.244846 -0.80715 0.537178
    outer loop
      vertex 24.7246 -42.9564 3.50005
      vertex 24.1243 -43.1385 3.50005
      vertex 25.0307 -43.6955 2.24995
    endloop
  endfacet
  facet normal 0.397609 -0.743873 0.537178
    outer loop
      vertex 25.7223 -43.3259 2.24995
      vertex 24.7246 -42.9564 3.50005
      vertex 25.0307 -43.6955 2.24995
    endloop
  endfacet
  facet normal 0.397609 -0.743873 0.537177
    outer loop
      vertex 25.2778 -42.6607 3.50005
      vertex 24.7246 -42.9564 3.50005
      vertex 25.7223 -43.3259 2.24995
    endloop
  endfacet
  facet normal 0.535091 -0.652011 0.537178
    outer loop
      vertex 26.3284 -42.8284 2.24995
      vertex 25.2778 -42.6607 3.50005
      vertex 25.7223 -43.3259 2.24995
    endloop
  endfacet
  facet normal 0.535091 -0.652011 0.537178
    outer loop
      vertex 25.7627 -42.2627 3.50005
      vertex 25.2778 -42.6607 3.50005
      vertex 26.3284 -42.8284 2.24995
    endloop
  endfacet
  facet normal 0.652011 -0.535091 0.537178
    outer loop
      vertex 26.8259 -42.2223 2.24995
      vertex 25.7627 -42.2627 3.50005
      vertex 26.3284 -42.8284 2.24995
    endloop
  endfacet
  facet normal 0.652011 -0.535091 0.537178
    outer loop
      vertex 26.1607 -41.7778 3.50005
      vertex 25.7627 -42.2627 3.50005
      vertex 26.8259 -42.2223 2.24995
    endloop
  endfacet
  facet normal 0.743873 -0.397609 0.537178
    outer loop
      vertex 27.1955 -41.5307 2.24995
      vertex 26.1607 -41.7778 3.50005
      vertex 26.8259 -42.2223 2.24995
    endloop
  endfacet
  facet normal 0.743873 -0.397609 0.537178
    outer loop
      vertex 26.4564 -41.2246 3.50005
      vertex 26.1607 -41.7778 3.50005
      vertex 27.1955 -41.5307 2.24995
    endloop
  endfacet
  facet normal 0.80715 -0.244846 0.537178
    outer loop
      vertex 27.4231 -40.7804 2.24995
      vertex 26.4564 -41.2246 3.50005
      vertex 27.1955 -41.5307 2.24995
    endloop
  endfacet
  facet normal 0.80715 -0.244846 0.537178
    outer loop
      vertex 26.6385 -40.6243 3.50005
      vertex 26.4564 -41.2246 3.50005
      vertex 27.4231 -40.7804 2.24995
    endloop
  endfacet
  facet normal 0.839408 -0.0826746 0.537178
    outer loop
      vertex 27.5 -40 2.24995
      vertex 26.6385 -40.6243 3.50005
      vertex 27.4231 -40.7804 2.24995
    endloop
  endfacet
  facet normal 0.839407 -0.0826743 0.537178
    outer loop
      vertex 26.7 -40 3.50005
      vertex 26.6385 -40.6243 3.50005
      vertex 27.5 -40 2.24995
    endloop
  endfacet
  facet normal 0.842291 1.00789e-016 0.539023
    outer loop
      vertex 26.7 -35.25 3.50005
      vertex 26.7 -40 3.50005
      vertex 27.5 -40 2.24995
    endloop
  endfacet
  facet normal 0.842291 5.03946e-017 0.539023
    outer loop
      vertex 27.5 -35.25 2.24995
      vertex 26.7 -35.25 3.50005
      vertex 27.5 -40 2.24995
    endloop
  endfacet
  facet normal -3.12964e-034 1.11721e-016 1
    outer loop
      vertex 18.75 43.2 3.50005
      vertex 18.75 35.25 3.50005
      vertex 26.7 35.25 3.50005
    endloop
  endfacet
  facet normal -5.81662e-017 -5.72886e-018 1
    outer loop
      vertex 26.6385 40.6243 3.50005
      vertex 18.75 43.2 3.50005
      vertex 26.7 40 3.50005
    endloop
  endfacet
  facet normal -1.82281e-017 9.34925e-017 1
    outer loop
      vertex 26.7 40 3.50005
      vertex 18.75 43.2 3.50005
      vertex 26.7 35.25 3.50005
    endloop
  endfacet
  facet normal 2.05619e-016 8.02155e-016 1
    outer loop
      vertex 26.4564 41.2246 3.50005
      vertex 18.75 43.2 3.50005
      vertex 26.6385 40.6243 3.50005
    endloop
  endfacet
  facet normal -0 -0 1
    outer loop
      vertex 26.1607 41.7778 3.50005
      vertex 18.75 43.2 3.50005
      vertex 26.4564 41.2246 3.50005
    endloop
  endfacet
  facet normal -0 -0 1
    outer loop
      vertex 25.7627 42.2627 3.50005
      vertex 18.75 43.2 3.50005
      vertex 26.1607 41.7778 3.50005
    endloop
  endfacet
  facet normal -0 -0 1
    outer loop
      vertex 25.2778 42.6607 3.50005
      vertex 18.75 43.2 3.50005
      vertex 25.7627 42.2627 3.50005
    endloop
  endfacet
  facet normal -0 -0 1
    outer loop
      vertex 24.7246 42.9564 3.50005
      vertex 18.75 43.2 3.50005
      vertex 25.2778 42.6607 3.50005
    endloop
  endfacet
  facet normal -0 -0 1
    outer loop
      vertex 24.1243 43.1385 3.50005
      vertex 18.75 43.2 3.50005
      vertex 24.7246 42.9564 3.50005
    endloop
  endfacet
  facet normal 0 -0 1
    outer loop
      vertex 23.5 43.2 3.50005
      vertex 18.75 43.2 3.50005
      vertex 24.1243 43.1385 3.50005
    endloop
  endfacet
  facet normal 0.842291 5.03946e-017 0.539023
    outer loop
      vertex 26.7 40 3.50005
      vertex 26.7 35.25 3.50005
      vertex 27.5 35.25 2.24995
    endloop
  endfacet
  facet normal 0.842291 1.00789e-016 0.539023
    outer loop
      vertex 27.5 40 2.24995
      vertex 26.7 40 3.50005
      vertex 27.5 35.25 2.24995
    endloop
  endfacet
  facet normal 0 0.842291 0.539023
    outer loop
      vertex 18.75 43.2 3.50005
      vertex 23.5 43.2 3.50005
      vertex 18.75 44 2.24995
    endloop
  endfacet
  facet normal 0 0.842291 0.539023
    outer loop
      vertex 18.75 44 2.24995
      vertex 23.5 43.2 3.50005
      vertex 23.5 44 2.24995
    endloop
  endfacet
  facet normal 0.839407 0.0826746 0.537178
    outer loop
      vertex 27.4231 40.7804 2.24995
      vertex 26.7 40 3.50005
      vertex 27.5 40 2.24995
    endloop
  endfacet
  facet normal 0.839408 0.0826743 0.537178
    outer loop
      vertex 27.4231 40.7804 2.24995
      vertex 26.6385 40.6243 3.50005
      vertex 26.7 40 3.50005
    endloop
  endfacet
  facet normal 0.80715 0.244846 0.537178
    outer loop
      vertex 27.1955 41.5307 2.24995
      vertex 26.6385 40.6243 3.50005
      vertex 27.4231 40.7804 2.24995
    endloop
  endfacet
  facet normal 0.80715 0.244846 0.537178
    outer loop
      vertex 27.1955 41.5307 2.24995
      vertex 26.4564 41.2246 3.50005
      vertex 26.6385 40.6243 3.50005
    endloop
  endfacet
  facet normal 0.743873 0.397609 0.537178
    outer loop
      vertex 26.8259 42.2223 2.24995
      vertex 26.4564 41.2246 3.50005
      vertex 27.1955 41.5307 2.24995
    endloop
  endfacet
  facet normal 0.743873 0.397609 0.537177
    outer loop
      vertex 26.8259 42.2223 2.24995
      vertex 26.1607 41.7778 3.50005
      vertex 26.4564 41.2246 3.50005
    endloop
  endfacet
  facet normal 0.652011 0.535091 0.537178
    outer loop
      vertex 26.3284 42.8284 2.24995
      vertex 26.1607 41.7778 3.50005
      vertex 26.8259 42.2223 2.24995
    endloop
  endfacet
  facet normal 0.652011 0.535091 0.537178
    outer loop
      vertex 26.3284 42.8284 2.24995
      vertex 25.7627 42.2627 3.50005
      vertex 26.1607 41.7778 3.50005
    endloop
  endfacet
  facet normal 0.535091 0.652011 0.537178
    outer loop
      vertex 26.3284 42.8284 2.24995
      vertex 25.7223 43.3259 2.24995
      vertex 25.7627 42.2627 3.50005
    endloop
  endfacet
  facet normal 0.535091 0.652011 0.537178
    outer loop
      vertex 25.7223 43.3259 2.24995
      vertex 25.2778 42.6607 3.50005
      vertex 25.7627 42.2627 3.50005
    endloop
  endfacet
  facet normal 0.397609 0.743873 0.537178
    outer loop
      vertex 25.7223 43.3259 2.24995
      vertex 25.0307 43.6955 2.24995
      vertex 25.2778 42.6607 3.50005
    endloop
  endfacet
  facet normal 0.397609 0.743873 0.537178
    outer loop
      vertex 25.0307 43.6955 2.24995
      vertex 24.7246 42.9564 3.50005
      vertex 25.2778 42.6607 3.50005
    endloop
  endfacet
  facet normal 0.244846 0.80715 0.537178
    outer loop
      vertex 25.0307 43.6955 2.24995
      vertex 24.2804 43.9231 2.24995
      vertex 24.7246 42.9564 3.50005
    endloop
  endfacet
  facet normal 0.244846 0.80715 0.537178
    outer loop
      vertex 24.2804 43.9231 2.24995
      vertex 24.1243 43.1385 3.50005
      vertex 24.7246 42.9564 3.50005
    endloop
  endfacet
  facet normal 0.0826746 0.839408 0.537178
    outer loop
      vertex 24.2804 43.9231 2.24995
      vertex 23.5 44 2.24995
      vertex 24.1243 43.1385 3.50005
    endloop
  endfacet
  facet normal 0.0826743 0.839407 0.537178
    outer loop
      vertex 23.5 44 2.24995
      vertex 23.5 43.2 3.50005
      vertex 24.1243 43.1385 3.50005
    endloop
  endfacet
endsolid OpenSCAD_Model
